<svg width="701" height="662" viewBox="0 0 701 662" fill="none" xmlns="http://www.w3.org/2000/svg">
<path d="M535.325 74.0169C584.007 111.364 621.777 159.203 651.994 213.755C682.21 268.727 705.292 330.413 699.836 389.582C694.38 449.17 660.387 506.66 617.161 555.337C574.355 603.595 521.476 643.46 463.562 656.469C405.647 669.897 342.697 656.469 276.808 641.782C210.92 627.095 142.514 611.148 91.7339 570.024C40.5341 528.9 6.9605 463.018 1.08511 395.457C-5.20994 327.896 16.6129 258.656 47.6685 194.872C78.3044 130.668 118.593 72.3384 173.57 38.348C228.546 3.93806 298.212 -5.29389 362.841 2.67916C427.47 11.0718 487.063 37.0891 535.325 74.0169Z" fill="#00C996"/>
<path fill-rule="evenodd" clip-rule="evenodd" d="M220.1 266.267H481.096C486.183 266.267 491.062 268.29 494.659 271.892C498.257 275.494 500.278 280.379 500.278 285.472V488.347C500.278 493.441 498.257 498.326 494.659 501.928C491.062 505.53 486.183 507.553 481.096 507.553H220.1C215.013 507.553 210.134 505.53 206.537 501.928C202.939 498.326 200.918 493.441 200.918 488.347V285.44C200.918 280.347 202.939 275.462 206.537 271.86C210.134 268.258 215.013 266.235 220.1 266.235V266.267Z" fill="black"/>
<path fill-rule="evenodd" clip-rule="evenodd" d="M334.837 399.905L314.153 454.161H387.011L367.83 399.073C375.405 395.159 381.432 388.789 384.926 381.004C388.42 373.218 389.175 364.476 387.067 356.206C384.96 347.935 380.114 340.624 373.322 335.467C366.53 330.309 358.192 327.609 349.669 327.807C341.147 328.006 332.943 331.091 326.398 336.559C319.852 342.028 315.352 349.556 313.63 357.916C311.909 366.276 313.069 374.973 316.921 382.587C320.772 390.202 327.088 396.284 334.837 399.841V399.905Z" fill="#00C996"/>
<path fill-rule="evenodd" clip-rule="evenodd" d="M468.085 266.266H431.8V236.114C431.928 213.482 423.287 191.682 407.695 175.296C400.395 167.439 391.556 161.172 381.73 156.887C371.903 152.602 361.3 150.391 350.582 150.391C339.864 150.391 329.262 152.602 319.435 156.887C309.609 161.172 300.77 167.439 293.469 175.296C277.877 191.682 269.237 213.482 269.365 236.114V266.266H233.08V236.114C233.029 204.154 245.306 173.41 267.351 150.297C278.022 138.902 290.914 129.819 305.23 123.61C319.546 117.401 334.981 114.197 350.582 114.197C366.184 114.197 381.619 117.401 395.935 123.61C410.251 129.819 423.143 138.902 433.814 150.297C455.875 173.399 468.156 204.151 468.085 236.114V266.266V266.266Z" fill="black"/>
</svg>
