<svg width="650" height="436" viewBox="0 0 650 436" fill="none" xmlns="http://www.w3.org/2000/svg">
<path opacity="0.7" fill-rule="evenodd" clip-rule="evenodd" d="M393.743 155.554C400.198 155.219 408.181 158.987 408.869 166.004C409.37 171.102 409.215 176.185 409.989 181.276C410.608 185.344 411.917 189.25 413.703 192.956C415.42 196.519 418.982 199.553 419.908 203.36C420.498 205.785 420.168 209.198 419.354 211.571C418.363 214.455 418.89 214.227 420.863 216.648C424.729 221.392 428.211 226.257 430.673 231.922C434.219 240.083 436.544 249.622 435.228 258.555C435.06 259.689 434.862 263.76 433.3 264.045C431.555 264.363 432.371 262.035 432.464 261.282C433.058 256.484 433.585 252.289 432.869 247.416C430.106 228.612 416.617 216.223 407.833 200.264C407.35 199.441 406.331 197.481 405.622 196.188C404.503 194.147 403.378 190.263 401.863 188.749C399.01 185.898 401.633 191.63 402.189 192.724C402.892 194.109 403.665 195.58 404.385 196.793C407.681 202.415 411.359 208.553 414.763 214.348C400.043 217.702 389.676 200.006 385.726 188.371C382.471 178.786 378.577 156.375 393.743 155.554Z" fill="#00C996"/>
<path opacity="0.7" fill-rule="evenodd" clip-rule="evenodd" d="M480.259 137.754C469.468 138.61 462.541 145.731 459.316 155.69C457.578 161.057 457.379 166.571 456.413 172.086C454.96 180.384 451.834 186.673 445.724 192.585C443.832 194.416 442.438 196.296 441.446 198.307C439.478 200.315 437.765 202.587 436.507 205.365C434.899 208.914 434.444 213.17 436.301 216.708C436.8 217.659 438.045 219.568 439.335 220.435C434.504 230.723 431.848 241.991 432.147 253.245C432.328 260.038 432.66 266.834 433.047 273.619C433.151 275.44 433.744 278.449 434.635 275.393C435.451 272.599 434.428 268.212 434.334 265.292C433.873 251.07 433.479 238.138 439.334 224.85C439.948 223.458 440.599 222.076 441.277 220.706C441.317 220.683 441.354 220.655 441.391 220.628C441.417 220.647 441.44 220.669 441.466 220.688C441.509 220.611 441.569 220.519 441.638 220.417C441.832 220.216 442.002 219.962 442.164 219.679C442.683 218.96 443.271 218.114 443.274 217.652C443.274 217.648 443.272 217.642 443.272 217.639C446.896 211.722 451.047 206.132 455.288 200.651C455.256 200.691 459.887 194.385 459.171 197.873C458.826 199.553 455.419 202.753 454.043 204.533C451 208.493 447.426 213.511 444.456 218.363C444.057 218.592 443.492 219.72 443.084 220.56C442.858 220.985 442.648 221.415 442.441 221.788C452.964 225.265 461.15 218.262 466.732 210.116C466.739 210.106 466.745 210.096 466.751 210.087C468.45 207.836 470.19 205.601 472.364 203.822C475.99 200.853 479.874 200.329 484.151 198.868C495.812 194.884 500.77 179.771 502.344 168.557C504.121 155.906 495.431 136.507 480.259 137.754Z" fill="#04A577"/>
<path opacity="0.7" fill-rule="evenodd" clip-rule="evenodd" d="M458.944 102.326C447.868 113.852 442.518 129.84 438.281 144.87C433.549 161.657 430.424 178.702 430.304 196.156C430.225 207.622 429.913 219.161 430.583 230.614C430.82 234.682 431.226 238.757 431.87 242.781C431.923 243.112 433.366 252.096 434.746 250.003C435.531 248.812 433.267 240.682 433.096 239.328C432.134 231.701 431.911 224.019 431.958 216.337C432.035 203.689 431.662 191.106 432.944 178.504C433.135 176.623 433.286 174.647 433.733 172.806C434.207 170.849 433.603 171.704 435.149 170.929C436.651 170.176 438.506 170.283 440.065 169.339C446.245 165.591 449.407 155.964 451.868 149.647C454.683 142.423 456.393 134.721 457.76 127.119C458.763 121.534 459.48 115.983 459.886 110.326C460.014 108.543 460.022 106.678 460.372 104.925C460.466 104.452 460.94 103.616 460.923 103.197C460.886 102.311 460.351 101.789 460.308 101.045C459.844 101.462 459.389 101.889 458.944 102.326Z" fill="#04A577"/>
<path opacity="0.7" fill-rule="evenodd" clip-rule="evenodd" d="M398.555 255.899C398.555 274.961 414.008 290.414 433.07 290.414C452.132 290.414 467.585 274.961 467.585 255.899" fill="#9A635A"/>
<path opacity="0.7" fill-rule="evenodd" clip-rule="evenodd" d="M435.84 256.009H434.016C434.142 253.72 434.31 251.436 434.692 249.174C436.155 240.52 440.73 227.81 450.763 226.405C451.133 226.353 452.495 226.344 454.144 226.441C454.926 226.004 455.801 225.74 456.724 225.679C465.266 225.049 474.806 231.941 478.926 239.112C482.248 244.895 481.688 252.487 479.637 258.63C478.263 262.743 475.264 268.607 470.264 268.664C464.008 268.736 463.706 261.003 463.585 256.483C463.424 250.473 462.665 245.238 457.929 241.142C456.826 240.188 455.619 239.348 454.504 238.407C452.759 236.934 450.83 235.426 450.605 232.989C450.294 229.627 452.192 229.022 455.09 229.647C455.583 229.753 460.559 231.986 459.822 230.221C459.597 229.682 458.776 229.255 457.739 228.935C455.056 228.643 451.857 228.305 450.936 228.507C441.01 230.685 437.145 244.435 436.118 253.172C436.007 254.115 435.918 255.061 435.84 256.009Z" fill="#00C996"/>
<path opacity="0.17" d="M256.735 411.392C256.735 411.392 230.046 418.482 240.377 423.546C250.709 428.611 325.157 430.586 325.157 430.586C325.157 430.586 369.724 431.194 381.068 420.66C389.425 412.962 452.731 418.178 452.731 418.178C452.731 418.178 459.112 423.597 463.113 426.18C482.358 438.487 522.823 434.84 579.444 435.296C636.065 435.752 634.495 424.002 633.178 421.014C631.861 417.976 618.187 406.682 585.926 407.087C553.666 407.492 378.486 399.034 256.735 411.392Z" fill="black"/>
<path d="M517.104 238.973L510.969 273.633L513.462 274.074L519.598 239.414L517.104 238.973Z" fill="#6075AF"/>
<path d="M516.644 238.003L514.799 248.426L518.689 249.114L520.534 238.692L516.644 238.003Z" fill="#6075AF"/>
<path d="M509.303 278.448L506.77 278.246L509.708 243.2L511.227 240.971L512.24 243.402L509.303 278.448Z" fill="#794061"/>
<path d="M505.756 280.272L503.275 280.728L496.539 246.239L497.4 243.656L499.021 245.732L505.756 280.272Z" fill="#072859"/>
<path d="M511.38 288.273H500.491L496.946 259.457H514.975L511.38 288.273Z" fill="#F2875E"/>
<path d="M515.482 288.273H504.593L503.023 259.457H519.078L515.482 288.273Z" fill="#FFBD62"/>
<path d="M555.592 155.027L548.4 159.484C543.184 162.725 541.361 169.36 544.096 174.829C544.653 175.893 545.007 176.602 544.906 176.551C544.653 176.248 555.896 155.179 555.896 155.179" fill="#7C4B39"/>
<path d="M573.824 223.651H578.484C581.624 223.651 584.207 221.068 584.207 217.928V199.544C584.207 196.404 581.624 193.821 578.484 193.821H573.824C570.684 193.821 568.102 196.404 568.102 199.544V217.928C568.102 221.068 570.684 223.651 573.824 223.651Z" fill="#FBBAA3"/>
<path d="M545.108 176.501C544.956 177.919 551.54 180.299 551.591 181.768L550.527 184.756C558.63 181.818 551.489 186.275 551.489 186.326C553.87 193.467 553.059 197.417 559.896 200.101C563.34 201.468 567.088 202.076 570.988 201.772C576.255 201.418 580.914 203.038 584.712 201.215C585.523 200.861 586.232 200.354 586.941 199.645C588.257 198.329 589.473 196.809 590.486 195.239C590.891 194.631 591.245 193.973 591.6 193.315C593.676 189.314 597.88 177.564 597.576 172.753C596.614 159.18 583.598 150.064 568.607 151.077C568.202 151.128 567.848 151.128 567.442 151.128C559.339 151.685 552.452 155.989 548.197 162.219C547.995 162.573 547.742 162.877 547.539 163.232C546.324 165.207 545.665 173.715 545.665 173.715C545.412 174.627 545.209 175.538 545.108 176.501Z" fill="#7C4B39"/>
<path d="M545.716 180.856L545.919 184.604L546.222 190.782L546.729 192.96C546.779 193.922 547.286 199.038 547.438 200C549.16 208.761 554.883 210.635 563.796 211.699C564.049 211.749 564.353 211.749 564.606 211.8C565.569 211.901 566.531 211.901 567.493 211.851C568.455 211.8 569.367 211.699 570.279 211.496C572.051 211.192 573.773 210.635 575.343 209.876C579.293 208.002 582.535 204.963 584.611 201.266C586.232 198.43 587.143 195.239 587.245 191.846C587.245 191.593 587.245 191.39 587.245 191.137C587.245 190.884 587.245 190.58 587.245 190.276V190.124V189.466L587.143 187.693L586.84 181.616V181.565L586.789 180.451L586.738 179.59L586.688 178.78V178.577C586.586 177.159 586.333 175.842 585.877 174.525C585.624 173.614 585.27 172.702 584.864 171.892C584.814 171.74 584.763 171.639 584.712 171.487C584.409 170.778 584.054 170.069 583.649 169.461C582.13 166.929 580.104 164.802 577.723 163.13C577.268 162.776 576.761 162.472 576.255 162.168C572.76 160.142 568.709 159.028 564.404 159.281C560.808 159.484 558.175 160.548 555.288 162.269C553.515 163.333 551.945 164.599 550.578 166.118C548.653 168.246 547.387 170.676 546.425 173.411C546.374 173.563 546.324 173.715 546.273 173.867C546.02 174.779 545.817 175.69 545.716 176.602C545.665 177.919 545.615 179.337 545.716 180.856Z" fill="#FBBAA3"/>
<path d="M553.262 162.371C548.907 174.424 560.403 173.462 560.96 178.982C561.011 179.59 561.264 180.502 561.416 185.06L562.277 187.896C562.53 188.757 563.34 189.415 564.252 189.415C565.417 189.415 566.328 188.504 566.328 187.339V187.288L566.227 182.781L568.455 188.757C570.076 193.062 572.507 196.961 575.647 200.202C578.23 202.937 581.269 205.216 584.611 206.989C584.611 206.989 598.69 198.633 598.69 179.539C598.69 178.02 598.589 176.45 598.437 174.779C598.285 173.31 598.032 171.892 597.678 170.626C591.853 146.924 562.733 155.027 559.947 156.04C556.908 157.104 553.262 162.371 553.262 162.371Z" fill="#7C4B39"/>
<path d="M543.235 193.618C543.235 193.669 543.235 193.922 543.235 193.922C543.286 195.239 544.4 196.252 547.185 196.201L546.78 186.022C544.552 189.466 543.438 191.491 543.235 193.618Z" fill="#FBBAA3"/>
<path d="M544.754 181.312H550.983C551.692 181.312 552.3 180.704 552.3 179.995C552.3 179.286 551.692 178.678 550.983 178.678H544.754C544.045 178.678 543.437 179.286 543.437 179.995C543.437 180.704 544.045 181.312 544.754 181.312Z" fill="#7C4B39"/>
<path d="M548.249 185.971C548.755 185.971 549.211 185.566 549.211 185.009V183.641C549.211 183.135 548.806 182.679 548.249 182.679C547.742 182.679 547.287 183.084 547.287 183.641V185.009C547.337 185.566 547.742 185.971 548.249 185.971Z" fill="#081344"/>
<path opacity="0.2" d="M575.648 200.101C578.231 202.836 581.269 205.115 584.612 206.887C584.612 206.887 598.691 198.531 598.691 179.438C598.691 177.919 598.59 176.349 598.438 174.677C598.286 173.209 598.033 171.791 597.678 170.524C597.07 174.171 595.399 179.64 591.246 186.427C584.814 196.809 577.927 199.493 575.648 200.101Z" fill="#081344"/>
<path d="M547.235 199.341L547.438 206.482C547.438 212.56 554.63 214.991 559.947 214.434L568.456 213.522L567.595 206.128L565.265 191.998L569.013 181.464L561.264 184.654C561.872 193.011 555.845 199.797 547.438 199.392L547.235 199.341Z" fill="#7C4B39"/>
<path d="M566.836 181.21C565.975 181.21 565.266 181.919 565.266 182.78L565.316 188.098L565.367 192.707H567.19C567.342 192.707 567.443 192.707 567.595 192.707C570.634 192.454 573.065 189.82 573.014 186.781C573.014 185.211 572.356 183.844 571.292 182.831C570.33 181.919 569.064 181.362 567.595 181.312C567.443 181.312 567.291 181.261 567.139 181.312L566.836 181.21Z" fill="#FBBAA3"/>
<path d="M371.648 283.107L367.293 275.055C366.786 274.093 365.672 273.738 364.761 274.143L364.609 274.245C363.748 274.7 363.393 275.815 363.9 276.777L368.255 284.829C368.762 285.792 369.876 286.146 370.787 285.741L370.939 285.64C371.851 285.133 372.155 284.019 371.648 283.107Z" fill="#F0AD9A"/>
<path d="M364.204 286.045L365.318 293.945C365.47 295.212 366.28 296.224 367.141 296.123C368.002 296.073 368.61 294.958 368.458 293.692L367.344 285.792C367.192 284.526 366.382 283.513 365.521 283.614C364.66 283.665 364.052 284.779 364.204 286.045Z" fill="#F0AD9A"/>
<path d="M360.659 288.121L361.773 296.022C361.925 297.288 362.735 298.301 363.596 298.2C364.457 298.149 365.065 297.035 364.913 295.769L363.799 287.868C363.647 286.602 362.837 285.589 361.976 285.69C361.115 285.741 360.507 286.855 360.659 288.121Z" fill="#F0AD9A"/>
<path d="M427.866 286.046L426.752 293.946C426.6 295.212 425.79 296.225 424.929 296.124C424.068 296.073 423.46 294.959 423.612 293.693L424.726 285.792C424.878 284.526 425.688 283.513 426.549 283.615C427.41 283.665 428.018 284.779 427.866 286.046Z" fill="#F0AD9A"/>
<path d="M431.411 288.122L430.297 296.023C430.145 297.289 429.335 298.302 428.474 298.2C427.613 298.15 427.005 297.036 427.157 295.769L428.271 287.869C428.423 286.603 429.234 285.59 430.095 285.691C430.955 285.742 431.563 286.856 431.411 288.122Z" fill="#F0AD9A"/>
<path d="M299.634 175.285L297.962 172.348C295.683 168.347 291.581 165.764 287.023 165.46C282.414 165.156 278.008 167.182 275.223 170.879C275.02 171.183 274.767 171.487 274.565 171.74C270.665 177.412 269.095 186.68 271.982 200.253L277.451 234.843L295.633 237.426L301.406 182.578C301.508 180.046 300.9 177.514 299.634 175.285Z" fill="#D16552"/>
<path d="M362.331 275.511L370.789 273.08C371.396 272.878 371.751 272.27 371.599 271.612C371.396 271.004 370.789 270.649 370.13 270.801L361.673 273.232C361.065 273.435 360.71 274.042 360.862 274.701C361.065 275.359 361.673 275.714 362.331 275.511Z" fill="#FFC6AF"/>
<path d="M365.37 277.537L372.156 275.562C372.764 275.359 373.118 274.751 372.966 274.093C372.764 273.485 372.156 273.131 371.498 273.283L364.711 275.258C364.103 275.46 363.749 276.068 363.901 276.726C364.103 277.334 364.762 277.689 365.37 277.537Z" fill="#FFC6AF"/>
<path d="M364.154 280.778L372.206 278.449C372.814 278.246 373.169 277.638 373.017 276.98C372.814 276.372 372.206 276.018 371.548 276.17L363.496 278.499C362.888 278.702 362.533 279.31 362.685 279.968C362.837 280.576 363.496 280.93 364.154 280.778Z" fill="#FFC6AF"/>
<path d="M365.776 272.827C365.674 272.827 364.611 272.979 363.446 273.08C361.471 273.282 359.546 273.991 357.875 275.055L354.684 277.131C354.684 277.131 357.369 282.702 357.622 282.702C364.357 283.057 366.231 279.816 366.231 279.816L365.776 272.827Z" fill="#FFC6AF"/>
<path d="M307.737 250.898C307.737 250.898 311.687 261.432 315.637 270.041C316.752 272.422 317.866 274.65 318.879 276.473C319.183 276.98 319.486 277.486 319.79 277.993C323.791 284.171 329.109 287.615 336.655 286.704C336.706 286.704 358.888 282.905 358.888 282.905L357.622 275.207L334.73 277.182C332.249 277.537 328.602 274.042 326.982 271.713C326.881 271.51 326.729 271.358 326.627 271.206C325.868 269.89 325.057 268.32 324.196 266.547C319.031 255.81 312.548 238.237 312.548 238.237L307.737 250.898Z" fill="#FFC6AF"/>
<path d="M310.623 231.096C311.079 231.805 321.613 252.417 321.613 252.417L313.358 259.963L310.623 231.096Z" fill="#FFBC48"/>
<path d="M314.372 334.918L264.74 339.831L246.508 247.404L274.565 247.252C286.922 247.201 297.608 255.862 300.141 267.915L314.372 334.918Z" fill="#6C1A48"/>
<path d="M251.37 335.526L240.431 254.646C239.924 251.05 242.507 247.708 246.103 247.201C249.699 246.695 253.041 249.278 253.548 252.873L264.487 333.753C264.993 337.349 262.41 340.691 258.815 341.198C255.219 341.654 251.876 339.121 251.37 335.526Z" fill="#F04747"/>
<path d="M296.445 346.617H288.747V391.995H296.445V346.617Z" fill="#394679"/>
<path d="M296.445 349.25V359.481L288.747 356.493V349.554C290.672 349.504 294.419 349.301 296.445 349.25Z" fill="#0A194D"/>
<path d="M310.422 350.263H276.035C274.161 350.263 272.591 348.693 272.591 346.819C272.591 344.945 274.161 343.375 276.035 343.375H310.422C312.296 343.375 313.866 344.945 313.866 346.819C313.866 348.693 312.347 350.263 310.422 350.263Z" fill="#394679"/>
<path d="M327.895 346.161H287.126C282.77 346.161 279.175 342.565 279.175 338.21V336.944C279.175 332.588 282.77 328.992 287.126 328.992H327.895C332.25 328.992 335.846 332.588 335.846 336.944V338.21C335.846 342.565 332.25 346.161 327.895 346.161Z" fill="#6C1A48"/>
<path d="M292.545 346.364H260.942C256.232 346.364 252.333 342.515 252.333 337.754C252.333 333.044 256.182 329.145 260.942 329.145H292.545C297.255 329.145 301.154 332.994 301.154 337.754C301.154 342.515 297.255 346.364 292.545 346.364Z" fill="#F04747"/>
<path d="M325.212 407.087H320.4C320.4 401.364 315.741 396.654 309.968 396.654H274.921C269.198 396.654 264.488 401.313 264.488 407.087H259.677C259.677 398.68 266.514 391.843 274.921 391.843H309.968C318.375 391.843 325.212 398.68 325.212 407.087Z" fill="#0A194D"/>
<path d="M298.218 384.651H286.974V391.994H298.218V384.651Z" fill="#0A194D"/>
<path d="M265.906 411.746C265.906 413.974 264.133 415.747 261.905 415.747C259.677 415.747 257.904 413.974 257.904 411.746C257.904 409.518 259.677 407.745 261.905 407.745C264.133 407.745 265.906 409.518 265.906 411.746Z" fill="#0A194D"/>
<path d="M267.678 411.391H256.739V409.771C256.739 407.087 258.916 404.909 261.6 404.909H262.816C265.5 404.909 267.678 407.087 267.678 409.771V411.391Z" fill="#394679"/>
<path d="M327.034 411.746C327.034 413.974 325.261 415.747 323.033 415.747C320.804 415.747 319.032 413.974 319.032 411.746C319.032 409.518 320.804 407.745 323.033 407.745C325.261 407.745 327.034 409.518 327.034 411.746Z" fill="#0A194D"/>
<path d="M328.806 411.391H317.867V409.771C317.867 407.087 320.044 404.909 322.729 404.909H323.944C326.628 404.909 328.806 407.087 328.806 409.771V411.391Z" fill="#394679"/>
<path d="M295.988 393.311H289.607V407.745H295.988V393.311Z" fill="#0A194D"/>
<path d="M296.9 411.746C296.9 413.974 295.127 415.747 292.899 415.747C290.671 415.747 288.898 413.974 288.898 411.746C288.898 409.518 290.671 407.745 292.899 407.745C295.127 407.745 296.9 409.518 296.9 411.746Z" fill="#0A194D"/>
<path d="M298.672 411.391H287.733V409.771C287.733 407.087 289.911 404.909 292.595 404.909H293.81C296.494 404.909 298.672 407.087 298.672 409.771V411.391Z" fill="#394679"/>
<path d="M307.737 340.033L307.433 339.931C307.534 340.134 307.737 340.033 307.737 340.033Z" fill="#072859"/>
<path d="M307.737 340.033L307.433 339.931C307.534 340.134 307.737 340.033 307.737 340.033Z" fill="#072859"/>
<path d="M278.363 300.935L278.717 315.672C278.92 323.776 282.161 330.511 292.442 330.815L319.233 334.259V318.103L315.789 307.113L278.363 300.935Z" fill="#1C1C2D"/>
<path d="M339.743 414.886L367.699 415.645C369.37 415.696 370.737 414.328 370.788 412.657C370.839 411.34 370.028 410.176 368.863 409.669L355.189 404.351L340.047 404.301L339.743 414.886Z" fill="#838282"/>
<path d="M368.357 416.455L339.945 415.898L339.996 413.822L370.332 414.43V414.581C370.282 415.645 369.421 416.455 368.357 416.455Z" fill="#0A194D"/>
<path d="M354.379 408.555L357.772 405.01" stroke="#0A194D" stroke-width="1.1138" stroke-miterlimit="10" stroke-linecap="round"/>
<path d="M356.811 409.618L360.204 406.124" stroke="#0A194D" stroke-width="1.1138" stroke-miterlimit="10" stroke-linecap="round"/>
<path d="M359.14 411.087L362.989 407.086" stroke="#0A194D" stroke-width="1.1138" stroke-miterlimit="10" stroke-linecap="round"/>
<path d="M339.794 405.769C341.465 377.915 342.528 345.451 340.351 340.235C338.122 336.994 323.739 333.6 310.065 329.853L312.952 311.063C323.942 312.785 350.328 321.446 356 331.22C358.38 335.322 359.191 350.111 358.076 378.522C357.469 393.412 356.76 405.06 356.76 405.06L339.794 405.769Z" fill="#1C1C2D"/>
<path d="M319.132 415.24L347.088 416C348.76 416.051 350.127 414.683 350.178 413.012C350.228 411.695 349.418 410.53 348.253 410.024L334.579 404.706L319.436 404.656L319.132 415.24Z" fill="#9B9593"/>
<path d="M347.747 416.81L319.335 416.253L319.386 414.177L349.722 414.784V414.936C349.671 416 348.81 416.81 347.747 416.81Z" fill="#0A194D"/>
<path d="M333.769 408.91L337.162 405.365" stroke="#0A194D" stroke-width="1.1138" stroke-miterlimit="10" stroke-linecap="round"/>
<path d="M336.2 409.974L339.593 406.479" stroke="#0A194D" stroke-width="1.1138" stroke-miterlimit="10" stroke-linecap="round"/>
<path d="M338.53 411.392L342.379 407.391" stroke="#0A194D" stroke-width="1.1138" stroke-miterlimit="10" stroke-linecap="round"/>
<path d="M319.183 406.124C320.854 378.269 321.917 345.806 319.74 340.59C317.714 338.564 301.609 334.664 288.289 330.815C283.225 329.347 279.528 325.042 278.819 319.825L278.11 311.266L292.797 310.557C303.787 312.279 329.717 321.75 335.389 331.524C337.769 335.627 338.579 350.415 337.465 378.827C336.858 393.716 336.149 405.364 336.149 405.364L319.183 406.124Z" fill="#25253A"/>
<path d="M317.004 309.19L289.403 310.355L277.856 310.861H277.805L274.412 254.139C274.058 246.441 274.868 240.667 276.286 236.363C280.439 223.701 289.96 223.803 290.872 223.803L300.849 223.904C309.306 223.904 315.89 238.287 316.751 253.025L316.903 291.717L316.954 305.24L317.004 309.19Z" fill="#FFBC48"/>
<path d="M317.004 309.19L289.403 310.355L277.856 310.861H277.805L274.412 254.139C274.058 246.441 274.868 240.668 276.286 236.363L281.654 244.567L291.327 276.372L307.331 284.171L316.954 291.718L317.004 305.24V309.19Z" fill="#F3A12A"/>
<path d="M573.519 327.169H531.636V335.525H573.519V327.169Z" fill="#0A194D"/>
<path d="M539.841 298.757H530.421V415.138H539.841V298.757Z" fill="#716F81"/>
<path d="M574.938 298.757H565.518V415.138H574.938V298.757Z" fill="#B0ADC0"/>
<path d="M339.389 327.878H299.583V336.234H339.389V327.878Z" fill="#716F81"/>
<path d="M308.192 298.858H298.772V415.24H308.192V298.858Z" fill="#716F81"/>
<path d="M342.428 298.757H333.008V415.138H342.428V298.757Z" fill="#B0ADC0"/>
<path d="M287.124 299.415H418.598V292.325C418.598 290.4 417.078 288.881 415.154 288.881H290.568C288.643 288.881 287.124 290.4 287.124 292.325V299.415Z" fill="#D16552"/>
<path d="M586.028 292.629V299.416H325.461V292.629C325.461 290.553 327.132 288.932 329.209 288.932H582.331C584.357 288.881 586.028 290.553 586.028 292.629Z" fill="#FB9E7B"/>
<path d="M559.186 288.881V299.415H488.03C486.764 296.681 484.738 292.173 483.32 288.881H559.186Z" fill="#D16552"/>
<path d="M495.628 289.236H442.147C441.843 288.83 441.59 288.324 441.488 287.817L429.536 244.567C428.979 242.49 430.499 240.465 432.626 240.465H479.725C481.194 240.465 482.46 241.427 482.815 242.845L495.628 289.236Z" fill="#DCDCDC"/>
<path d="M447.971 289.641H498.211L484.841 241.326C484.435 239.908 483.169 238.945 481.751 238.945H434.702C432.575 238.945 431.005 240.971 431.613 243.048L443.565 286.248C444.072 288.223 445.895 289.641 447.971 289.641Z" fill="#2D2D3A"/>
<path d="M434.195 244.921L443.97 280.119L446.046 287.514H495.881L493.855 280.119L483.625 243.301C483.27 241.984 482.105 241.123 480.738 241.123H437.133C435.107 241.123 433.638 243.048 434.195 244.921Z" fill="#2F558B"/>
<path d="M463.521 245.935H478.866L478.511 244.871H463.166L463.521 245.935Z" fill="#EBEDEF"/>
<path d="M449.644 245.935H456.886L456.532 244.871H449.289L449.644 245.935Z" fill="#E95444"/>
<path d="M439.161 245.935H446.403L446.048 244.871H438.806L439.161 245.935Z" fill="#A19EAF"/>
<path d="M447.264 245.935H448.986L448.631 244.871H446.909L447.264 245.935Z" fill="#6E88C3"/>
<path d="M457.747 245.935H462.811L462.457 244.871H457.392L457.747 245.935Z" fill="#A19EAF"/>
<path d="M474.207 264.318H466.964L466.61 263.255H473.852L474.207 264.318Z" fill="#DCDCDC"/>
<path d="M484.69 264.318H477.448L477.093 263.255H484.335L484.69 264.318Z" fill="#FFC443"/>
<path d="M476.587 264.318H474.865L474.51 263.255H476.232L476.587 264.318Z" fill="#6E88C3"/>
<path d="M474.561 250.543H480.335L479.98 249.48H474.258L474.561 250.543Z" fill="#E95444"/>
<path d="M460.685 250.543H463.116L462.812 249.48H460.33L460.685 250.543Z" fill="#6E88C3"/>
<path d="M440.579 250.543H452.632L452.329 249.48H440.275L440.579 250.543Z" fill="#E95444"/>
<path d="M453.493 250.543H460.026L459.672 249.48H453.189L453.493 250.543Z" fill="#6E88C3"/>
<path d="M463.977 250.543H473.852L473.498 249.48H463.622L463.977 250.543Z" fill="#6E88C3"/>
<path d="M483.322 278.144H489.045L488.741 277.081H482.968L483.322 278.144Z" fill="#313D6E"/>
<path d="M476.03 255.152H481.804L481.449 254.038H475.676L476.03 255.152Z" fill="#DCDCDC"/>
<path d="M466.661 255.152H472.384L472.08 254.038H466.306L466.661 255.152Z" fill="#DCDCDC"/>
<path d="M443.668 255.152H453.544L453.189 254.038H443.313L443.668 255.152Z" fill="#6E88C3"/>
<path d="M483.221 259.76H473.345L472.991 258.646H482.917L483.221 259.76Z" fill="#6E88C3"/>
<path d="M443.97 280.17L445.996 287.514H495.83L493.804 280.17H443.97Z" fill="#2D2D3A"/>
<path d="M470.811 289.742H531.99C533.408 289.742 534.573 288.577 534.573 287.159C534.573 285.741 533.408 284.576 531.99 284.576H470.811C469.393 284.576 468.228 285.741 468.228 287.159C468.228 288.577 469.393 289.742 470.811 289.742Z" fill="#84808D"/>
<path d="M447.666 289.692H483.978C485.447 289.692 486.662 288.476 486.662 287.008C486.662 285.539 485.447 284.323 483.978 284.323H447.666C446.197 284.323 444.981 285.539 444.981 287.008C445.032 288.527 446.197 289.692 447.666 289.692Z" fill="#DCDCDC"/>
<path d="M465.442 286.096H460.377V287.615H465.442V286.096Z" fill="#081344"/>
<path d="M470.608 286.096H466.961V287.615H470.608V286.096Z" fill="#081344"/>
<path d="M392.666 275.562V289.388H404.213V275.562C404.213 274.954 403.706 274.448 403.098 274.448H393.729C393.172 274.448 392.666 274.954 392.666 275.562Z" fill="#F04747"/>
<path d="M404.111 287.058C404.263 286.957 407.808 284.88 408.112 281.234C408.213 279.866 407.707 279.005 407.251 278.499C405.985 277.182 403.858 277.284 403.655 277.284L403.757 278.955C404.162 278.955 405.428 279.005 406.086 279.664C406.39 280.018 406.542 280.474 406.491 281.082C406.238 283.867 403.351 285.539 403.301 285.589L404.111 287.058Z" fill="#F04747"/>
<path d="M398.085 289.438H404.263V275.612C404.263 275.005 403.757 274.498 403.149 274.498H402.795C402.795 275.207 402.592 280.728 401.022 284.729C399.655 288.172 398.439 289.185 398.085 289.438Z" fill="#F04747"/>
<path opacity="0.37" d="M407.251 278.499C406.34 277.587 405.023 277.334 404.263 277.284V275.562C404.263 274.954 403.757 274.448 403.149 274.448H402.795C402.795 275.157 402.592 280.677 401.022 284.678C399.655 288.122 398.49 289.185 398.085 289.388H404.263V286.906C404.972 286.501 407.859 284.475 408.163 281.183C408.264 279.867 407.707 279.006 407.251 278.499ZM406.441 281.082C406.289 282.804 405.124 284.121 404.263 284.83V278.955C404.82 279.006 405.631 279.208 406.036 279.664C406.39 280.018 406.492 280.474 406.441 281.082Z" fill="#6C1A48"/>
<path d="M405.43 289.894H364.053C361.369 289.894 359.546 287.058 360.711 284.627L375.145 253.835C376.411 251.15 379.095 249.428 382.083 249.428H420.218C422.194 249.428 423.51 251.505 422.649 253.277L405.43 289.894Z" fill="#DCDCDC"/>
<path d="M364.206 289.995H334.68C333.464 289.995 332.502 289.033 332.502 287.817C332.502 286.602 333.464 285.64 334.68 285.64H364.206C365.421 285.64 366.383 286.602 366.383 287.817C366.383 289.033 365.37 289.995 364.206 289.995Z" fill="#D9D9DF"/>
<path d="M353.57 287.108H349.367V288.374H353.57V287.108Z" fill="white"/>
<path d="M348.101 287.108H345.062V288.374H348.101V287.108Z" fill="white"/>
<path d="M404.822 289.894H363.344C361.876 289.894 360.863 288.324 361.521 287.007L377.069 253.835C378.335 251.15 381.019 249.428 384.007 249.428H422.143C424.118 249.428 425.435 251.505 424.574 253.277L408.469 287.615C407.76 288.982 406.342 289.894 404.822 289.894Z" fill="#A19EAF"/>
<path d="M395.757 272.016C394.795 274.295 392.921 275.713 391.655 275.207C390.388 274.65 390.135 272.371 391.098 270.041C392.06 267.762 393.934 266.344 395.2 266.851C396.466 267.408 396.719 269.687 395.757 272.016Z" fill="white"/>
<path d="M329.515 281.69L338.225 280.323C338.884 280.221 339.289 279.614 339.188 279.006C339.086 278.347 338.479 277.942 337.871 278.044L329.16 279.411C328.502 279.512 328.097 280.12 328.198 280.728C328.299 281.335 328.907 281.791 329.515 281.69Z" fill="#FFC6AF"/>
<path d="M332.3 284.02L339.289 282.956C339.947 282.855 340.353 282.247 340.251 281.639C340.15 280.981 339.542 280.576 338.934 280.677L331.945 281.741C331.287 281.842 330.882 282.45 330.983 283.057C331.034 283.716 331.642 284.121 332.3 284.02Z" fill="#FFC6AF"/>
<path d="M330.628 287.109L338.934 285.843C339.592 285.742 339.998 285.134 339.896 284.526C339.795 283.868 339.187 283.463 338.58 283.564L330.274 284.83C329.615 284.931 329.21 285.539 329.312 286.147C329.413 286.754 330.021 287.21 330.628 287.109Z" fill="#FFC6AF"/>
<path d="M333.312 279.411C333.211 279.411 332.147 279.411 330.982 279.36C329.007 279.31 326.982 279.765 325.209 280.626L321.765 282.298C321.765 282.298 323.69 288.172 323.994 288.223C330.628 289.439 332.907 286.451 332.907 286.451L333.312 279.411Z" fill="#FFC6AF"/>
<path d="M278.513 250.239C278.513 250.239 281.096 261.229 283.932 270.193C284.743 272.675 285.553 275.055 286.313 276.98C286.566 277.537 286.769 278.094 287.022 278.6C290.162 285.235 295.024 289.337 302.62 289.388C302.671 289.388 325.107 288.476 325.107 288.476L324.803 280.677L301.81 279.714C299.328 279.714 296.087 275.815 294.821 273.283C294.72 273.08 294.618 272.877 294.568 272.726C294.011 271.358 293.352 269.636 292.745 267.762C288.997 256.469 284.793 238.186 284.793 238.186L278.513 250.239Z" fill="#FFC6AF"/>
<path d="M286.821 231.298L291.885 253.734L277.451 258.089C277.451 258.089 276.641 255.253 276.033 251.961C275.425 248.669 274.716 240.262 276.337 236.363C277.806 232.716 282.617 232.058 286.821 231.298Z" fill="#FFBC48"/>
<path d="M497.096 407.087L495.931 412.911L510.719 412.658L510.213 408.505L497.096 407.087Z" fill="#FFC6AF"/>
<path d="M555.135 422.432L524.749 421.825C522.925 421.774 521.507 420.305 521.558 418.482C521.609 417.064 522.52 415.848 523.837 415.443L538.98 410.531L555.389 411.29L555.135 422.432Z" fill="#874C2E"/>
<path d="M524.141 422.635L554.882 423.496L554.933 421.267L521.963 420.356C521.963 421.571 522.925 422.584 524.141 422.635Z" fill="#0A194D"/>
<path d="M539.182 414.937L535.738 411.037" stroke="#0A194D" stroke-width="1.1846" stroke-miterlimit="10" stroke-linecap="round"/>
<path d="M536.549 415.95L533.105 412.05" stroke="#0A194D" stroke-width="1.1846" stroke-miterlimit="10" stroke-linecap="round"/>
<path d="M534.016 417.368L530.116 412.911" stroke="#0A194D" stroke-width="1.1846" stroke-miterlimit="10" stroke-linecap="round"/>
<path d="M556.552 411.948C554.779 382.321 555.286 354.922 557.565 349.351C559.945 345.907 578.38 338.462 596.815 337.652L588.205 318.812C563.997 320.028 546.727 329.093 540.65 339.475C538.117 343.831 535.889 352.694 537.054 382.929C537.662 398.78 538.472 411.138 538.472 411.138L556.552 411.948Z" fill="#0A0A2C"/>
<path d="M495.222 408.504C495.222 407.086 503.933 342.869 508.035 337.5C514.264 329.296 536.801 321.598 561.212 318.812L570.227 340.032C551.792 340.843 528.293 347.933 525.052 349.959C522.722 355.53 510.466 410.631 510.466 410.631L496.539 409.77C496.539 409.821 495.222 409.922 495.222 408.504Z" fill="#25253A"/>
<path d="M555.59 324.231C555.59 327.574 556.755 330.612 558.73 332.942C561.262 335.981 565.06 337.905 569.315 337.905H592.358C593.067 337.905 593.725 337.855 594.384 337.753C596.055 337.5 597.676 336.943 599.094 336.133C599.347 335.981 599.6 335.829 599.853 335.677C603.601 333.246 606.083 328.992 606.083 324.18L605.678 316.888L555.995 316.482L555.59 324.231Z" fill="#25253A"/>
<path d="M539.737 285.134L527.836 283.21C526.975 283.058 526.367 282.247 526.519 281.386C526.671 280.526 527.481 279.918 528.342 280.07L540.244 281.994C541.105 282.146 541.712 282.956 541.56 283.817C541.408 284.678 540.598 285.286 539.737 285.134Z" fill="#FFC6AF"/>
<path d="M535.938 288.376L526.417 286.856C525.556 286.704 524.949 285.894 525.1 285.033C525.252 284.172 526.063 283.564 526.924 283.716L536.445 285.236C537.306 285.387 537.914 286.198 537.762 287.059C537.61 287.92 536.799 288.527 535.938 288.376Z" fill="#FFC6AF"/>
<path d="M538.167 292.528L526.873 290.705C526.012 290.553 525.405 289.743 525.557 288.882C525.708 288.021 526.519 287.413 527.38 287.565L538.674 289.388C539.534 289.54 540.142 290.351 539.99 291.212C539.838 292.072 539.028 292.68 538.167 292.528Z" fill="#FFC6AF"/>
<path d="M534.572 282.095C534.723 282.095 536.142 282.095 537.712 282.045C540.446 281.994 543.131 282.602 545.561 283.817L550.271 286.147C550.271 286.147 547.587 294.098 547.233 294.199C538.218 295.82 535.078 291.718 535.078 291.718L534.572 282.095Z" fill="#FFC6AF"/>
<path d="M545.562 282.095H541.561V295.111H545.562V282.095Z" fill="white"/>
<path d="M571.898 296.529C581.369 296.529 590.029 291.008 593.979 282.399L594.182 281.994L606.539 244.213L591.295 239.199L579.241 276.017C577.823 278.752 574.937 280.525 571.797 280.474L545.512 280.221L545.36 296.275L571.645 296.529C571.746 296.529 571.797 296.529 571.898 296.529Z" fill="#04A577"/>
<path d="M486.307 279.765C487.27 277.993 488.789 276.575 490.561 275.714H490.612C493.043 274.498 495.778 273.941 498.513 273.992L503.729 274.093C503.729 274.093 504.793 286.45 504.691 286.096C504.539 285.336 499.678 284.627 486.409 284.627C485.143 284.627 484.332 283.31 484.94 282.196L486.307 279.765Z" fill="#FFC6AF"/>
<path d="M506.465 273.688H501.501V287.058H506.465V273.688Z" fill="white"/>
<path d="M607.703 328.232C607.703 328.232 602.537 328.789 595.599 329.093C594.333 329.144 593.016 329.194 591.649 329.245C583.596 329.447 574.227 329.194 567.542 327.422C563.49 326.358 560.401 325.244 558.122 324.282C557.16 323.877 556.349 323.471 555.691 323.117C553.159 321.749 552.146 320.787 552.044 320.635L551.639 277.739L551.335 244.06C551.335 230.791 562.123 220.004 575.392 220.004H583.495C584.913 220.004 586.331 220.105 587.648 220.359C589.066 220.612 590.433 220.966 591.699 221.473C600.917 224.866 607.5 233.678 607.5 244.06L607.703 328.232Z" fill="#00C996"/>
<path opacity="0.33" d="M607.464 327.728C607.464 327.728 602.298 328.285 595.36 328.589C594.094 328.639 592.777 328.69 591.41 328.741C587.105 328.842 582.446 328.842 577.989 328.488L577.786 237.833C577.786 230.946 575.254 224.666 571 219.855C572.317 219.601 573.684 219.5 575.102 219.5H583.205C584.623 219.5 586.041 219.601 587.358 219.855C588.776 220.108 590.144 220.462 591.41 220.969C600.627 224.362 607.211 233.174 607.211 243.556L607.464 327.728Z" fill="#6C1A48"/>
<path opacity="0.48" d="M566.985 244.415C566.023 248.517 560.402 273.84 557.819 285.539L557.667 265.635C557.667 265.635 556.806 269.028 554.425 273.333L553.21 262.9C553.21 262.85 568.201 239.047 566.985 244.415Z" fill="#6C1A48"/>
<path d="M588.812 354.618H580.709V399.743H588.812V354.618Z" fill="#394679"/>
<path d="M580.709 357.201V367.381L588.812 364.443V357.555C586.786 357.454 582.886 357.302 580.709 357.201Z" fill="#0A194D"/>
<path d="M565.516 358.264H602.69C604.411 358.264 605.83 356.846 605.83 355.124V354.618C605.83 352.896 604.411 351.478 602.69 351.478H565.516C563.794 351.478 562.376 352.896 562.376 354.618V355.124C562.326 356.846 563.744 358.264 565.516 358.264Z" fill="#394679"/>
<path d="M550.676 416.405H555.74C555.74 410.682 560.653 406.023 566.73 406.023H603.701C609.778 406.023 614.691 410.682 614.691 416.405H619.755C619.755 408.048 612.564 401.262 603.701 401.262H566.73C557.918 401.211 550.676 408.048 550.676 416.405Z" fill="#0A194D"/>
<path d="M590.736 392.399H578.885V402.275H590.736V392.399Z" fill="#0A194D"/>
<path d="M613.273 421.013C613.273 423.191 615.147 424.963 617.477 424.963C619.807 424.963 621.68 423.191 621.68 421.013C621.68 418.835 619.807 417.063 617.477 417.063C615.147 417.063 613.273 418.835 613.273 421.013Z" fill="#0A194D"/>
<path d="M611.4 420.658H622.947V419.19C622.947 416.455 620.719 414.227 617.984 414.227H616.414C613.679 414.227 611.451 416.455 611.451 419.19V420.658H611.4Z" fill="#394679"/>
<path d="M548.752 421.013C548.752 423.191 550.626 424.963 552.955 424.963C555.285 424.963 557.159 423.191 557.159 421.013C557.159 418.835 555.285 417.063 552.955 417.063C550.626 417.063 548.752 418.835 548.752 421.013Z" fill="#0A194D"/>
<path d="M546.929 420.658H558.476V419.19C558.476 416.455 556.247 414.227 553.513 414.227H551.943C549.208 414.227 546.979 416.455 546.979 419.19V420.658H546.929Z" fill="#394679"/>
<path d="M588.256 402.731H581.52V417.063H588.256V402.731Z" fill="#0A194D"/>
<path d="M580.556 421.013C580.556 423.191 582.43 424.963 584.76 424.963C587.089 424.963 588.963 423.191 588.963 421.013C588.963 418.835 587.089 417.063 584.76 417.063C582.43 417.063 580.556 418.835 580.556 421.013Z" fill="#0A194D"/>
<path d="M578.683 420.658H590.23V419.19C590.23 416.455 588.001 414.227 585.266 414.227H583.696C580.962 414.227 578.733 416.455 578.733 419.19V420.658H578.683Z" fill="#394679"/>
<path d="M649.384 266.952L638.495 345.401C637.837 350.161 633.836 353.757 629.025 353.909L604.259 354.365L619.402 255.709H639.559C645.585 255.709 650.194 260.976 649.384 266.952Z" fill="#6C1A48"/>
<path d="M531.027 289.236C540.497 289.236 549.158 283.715 553.108 275.106L570.935 236.515L556.349 229.779L538.522 268.37C537.155 271.308 534.217 273.232 530.926 273.181L504.641 272.928L504.489 288.983L530.774 289.236C530.875 289.236 530.976 289.236 531.027 289.236Z" fill="#00C996"/>
<path d="M541.866 354.365H606.59C610.945 354.365 614.49 350.82 614.49 346.464V345.198C614.49 340.843 610.945 337.298 606.59 337.298H541.866C537.51 337.298 533.965 340.843 533.965 345.198V346.464C533.965 350.82 537.561 354.365 541.866 354.365Z" fill="#F04747"/>
<path d="M591.7 214.535H566.884V221.473H591.7V214.535Z" fill="white"/>
<path d="M615.553 343.578L627.05 263.103C627.556 259.507 624.872 256.165 621.073 255.709C617.275 255.203 613.73 257.785 613.224 261.331L601.727 341.805C601.221 345.401 603.905 348.743 607.703 349.199C611.502 349.706 613.477 352.39 615.553 343.578Z" fill="#F04747"/>
<path opacity="0.48" d="M558.123 324.282C557.16 323.877 556.35 323.471 555.692 323.117C553.159 321.75 552.147 320.787 552.045 320.635L551.64 277.739C556.198 271.561 557.718 265.584 557.718 265.584L558.123 324.282Z" fill="#6C1A48"/>
<path d="M511.38 422.685L480.993 422.939C479.17 422.939 477.701 421.47 477.701 419.697C477.701 418.279 478.562 417.064 479.879 416.608L494.87 411.24L511.279 411.493L511.38 422.685Z" fill="#A26440"/>
<path d="M480.386 423.749H511.127V421.521H478.157C478.208 422.787 479.17 423.749 480.386 423.749Z" fill="#0A194D"/>
<path d="M495.223 415.595L491.678 411.797" stroke="#0A194D" stroke-width="1.1846" stroke-miterlimit="10" stroke-linecap="round"/>
<path d="M492.59 416.709L489.044 412.911" stroke="#0A194D" stroke-width="1.1846" stroke-miterlimit="10" stroke-linecap="round"/>
<path d="M490.108 418.178L486.107 413.873" stroke="#0A194D" stroke-width="1.1846" stroke-miterlimit="10" stroke-linecap="round"/>
<path d="M431.816 282.449H407.659V289.64H431.816V282.449Z" fill="#0A194D"/>
<path d="M425.03 282.449H400.872V289.64H425.03V282.449Z" fill="#6075AF"/>
<path d="M410.495 287.058C408.115 287.412 406.342 289.438 406.292 291.869L406.241 294.958C406.14 299.668 402.341 303.467 397.631 303.517L389.579 303.618C385.933 303.669 382.843 300.833 382.59 297.187L382.539 296.326C382.286 292.426 379.247 289.337 375.348 288.982L353.824 288.931C353.115 288.931 352.456 288.628 352.001 288.071L351.747 287.716" stroke="white" stroke-width="2.0651" stroke-miterlimit="10" stroke-linecap="round"/>
<path d="M414.85 287.716C412.723 287.817 411.103 289.64 411.153 291.767L411.812 314.71C411.964 320.787 407 325.75 400.923 325.547C395.302 325.396 390.794 320.838 390.693 315.216L390.186 292.932C390.136 290.856 388.464 289.134 386.388 289.083L376.107 289.033" stroke="white" stroke-width="2.0651" stroke-miterlimit="10" stroke-linecap="round"/>
<path d="M418.345 288.78H413.686C413.18 288.78 412.724 288.375 412.724 287.817C412.724 287.311 413.129 286.855 413.686 286.855H418.345C418.852 286.855 419.308 287.26 419.308 287.817C419.308 288.324 418.903 288.78 418.345 288.78Z" fill="white"/>
<path d="M410.749 288.324H406.089C405.583 288.324 405.127 287.919 405.127 287.361C405.127 286.855 405.532 286.399 406.089 286.399H410.749C411.255 286.399 411.711 286.804 411.711 287.361C411.711 287.868 411.255 288.324 410.749 288.324Z" fill="white"/>
<path d="M296.746 228.563H293.961C291.479 228.563 289.453 226.538 289.453 224.056V207.799C289.453 205.318 291.479 203.292 293.961 203.292H296.746C299.228 203.292 301.254 205.318 301.254 207.799V224.056C301.254 226.487 299.228 228.563 296.746 228.563Z" fill="#F3A790"/>
<path d="M295.582 168.296L293.809 166.372C293.809 166.372 285.047 167.79 281.452 175.437L282.718 177.311L295.582 168.296Z" fill="white"/>
<path d="M323.538 190.023C323.538 190.327 323.487 190.681 323.437 190.985C323.234 192.504 322.93 194.024 322.424 195.391C320.398 201.418 299.634 183.287 293.81 185.617C290.923 186.782 289.1 211.243 288.644 210.838C278.768 201.924 279.274 190.934 279.578 186.832C280.389 175.285 291.125 166.726 302.571 167.03C302.875 167.03 303.229 167.081 303.533 167.081C310.776 167.587 316.904 171.588 320.398 177.362C321.411 179.033 322.221 180.907 322.778 182.831C323.487 185.11 323.741 187.541 323.538 190.023Z" fill="#F2875E"/>
<path d="M294.924 194.429C294.924 194.885 294.772 195.34 294.62 195.746C294.418 196.252 294.063 196.759 293.658 197.113C292.949 197.771 291.936 198.227 290.872 198.177L288.593 198.075L286.821 197.974L287.074 192.758L287.125 191.795L287.175 191.036L287.226 190.377V190.225L291.278 190.428C292.29 190.479 293.202 190.934 293.86 191.593C294.266 191.998 294.569 192.504 294.721 193.061C294.873 193.517 294.924 193.973 294.924 194.429Z" fill="#FFDBD3"/>
<path d="M286.719 200.911C286.719 201.114 286.719 201.317 286.719 201.519C286.719 201.57 286.719 201.62 286.719 201.722C286.82 204.254 287.479 206.634 288.542 208.812C288.593 208.913 288.644 209.015 288.694 209.116C290.467 212.458 293.303 215.193 296.798 216.865C298.165 217.523 299.583 217.979 301.102 218.232C301.659 218.333 302.217 218.435 302.774 218.485C302.976 218.485 303.229 218.536 303.483 218.536C304.293 218.586 305.154 218.586 305.964 218.485C306.167 218.485 306.42 218.435 306.673 218.435C314.219 217.523 320.398 211.8 321.816 204.355C321.968 203.545 322.069 202.735 322.12 201.924L322.171 200.658L322.576 192.251C322.626 190.985 322.626 189.77 322.474 188.554C322.373 187.642 322.171 186.731 321.867 185.819C321.107 183.49 319.993 181.413 318.372 179.59C315.334 176.247 310.927 174.019 306.066 173.816C302.419 173.614 298.925 174.576 295.987 176.298C295.582 176.551 295.126 176.805 294.721 177.108C292.695 178.526 290.973 180.35 289.707 182.477C289.353 183.034 289.049 183.642 288.796 184.199C288.745 184.3 288.694 184.401 288.644 184.503C288.34 185.212 288.036 185.971 287.783 186.731C287.428 187.845 287.175 188.959 287.124 190.175V190.327L287.074 190.985L287.023 191.745L286.972 192.707V192.758V192.91L286.922 193.365L286.719 197.923L286.618 199.443V200V200.101C286.719 200.456 286.719 200.709 286.719 200.911Z" fill="#FFC6AF"/>
<path d="M284.086 196.607C283.985 198.278 285.15 199.797 286.719 200.202C286.871 200.253 287.023 200.253 287.175 200.304C287.226 200.304 287.327 200.304 287.429 200.304L288.492 200.354L288.593 198.075V197.569L288.796 193.467L287.732 193.416C287.631 193.416 287.53 193.416 287.429 193.416C287.277 193.416 287.175 193.416 287.023 193.467C286.314 193.568 285.707 193.821 285.2 194.277C284.592 194.885 284.137 195.644 284.086 196.607Z" fill="#FFDBD3"/>
<path d="M286.719 200.202C286.719 200.456 286.719 200.709 286.719 200.911C286.719 201.114 286.719 201.317 286.719 201.519C286.719 201.57 286.719 201.62 286.719 201.722C286.77 201.722 286.77 201.722 286.82 201.722C286.922 204.254 287.529 206.634 288.593 208.761C288.643 208.863 288.694 208.964 288.745 209.065C290.517 212.509 293.404 215.345 296.949 217.016C299.988 218.84 300.19 218.586 300.19 218.586C300.19 218.586 301.659 218.384 301.457 218.283C300.241 217.472 297.05 214.434 295.025 209.167C293.961 206.28 293.708 201.57 293.708 197.366V197.062C293.708 195.138 293.809 193.315 293.91 191.846C293.91 191.795 293.91 191.795 293.91 191.745C294.012 189.719 294.164 188.402 294.164 188.402C292.796 185.414 290.365 185.667 287.934 186.984C287.631 187.997 287.377 189.111 287.276 190.225C287.276 190.276 287.276 190.377 287.276 190.428V190.58L287.225 191.238L287.175 191.998L287.124 192.96C287.073 192.96 287.023 192.96 287.023 192.96L286.972 193.416C286.263 193.517 285.655 193.771 285.149 194.226C284.491 194.834 284.035 195.594 283.984 196.556C283.984 198.227 285.149 199.797 286.719 200.202Z" fill="#FFC6AF"/>
<path d="M316.903 182.831C317.156 184.351 316.65 185.819 315.637 186.781C314.827 187.592 313.712 188.098 312.497 188.098C312.497 188.098 294.923 189.415 292.391 194.834L290.517 198.278C290.264 198.784 289.707 199.088 289.099 199.038C289.099 199.038 289.099 199.038 289.048 199.038C288.339 198.987 287.782 198.43 287.681 197.771C287.225 194.378 285.301 184.654 285.301 183.895C285.301 182.679 286.466 181.211 287.276 180.4C288.086 179.59 289.2 179.083 290.416 179.083H312.244C314.523 179.134 316.498 180.653 316.903 182.831Z" fill="#F2875E"/>
<path d="M309.053 208.609H311.839C312.193 208.609 312.548 208.306 312.548 207.9C312.548 207.546 312.244 207.191 311.839 207.191H309.053C308.699 207.191 308.344 207.495 308.344 207.9C308.395 208.306 308.699 208.609 309.053 208.609Z" fill="#F04747"/>
<path d="M309.155 209.825H311.13C311.636 209.825 312.042 209.42 312.042 208.913C312.042 208.407 311.636 208.002 311.13 208.002H309.155C308.648 208.002 308.243 208.407 308.243 208.913C308.243 209.42 308.648 209.825 309.155 209.825Z" fill="#F04747"/>
<path d="M313.409 203.241C313.409 203.241 313.207 204.507 311.384 204.457C309.814 204.406 309.662 203.292 309.662 203.292L313.409 203.241Z" fill="#FFC6AF"/>
<path d="M284.288 201.215C284.288 202.279 285.149 203.089 286.162 203.089C287.225 203.089 288.036 202.228 288.036 201.215C288.036 200.152 287.175 199.341 286.162 199.341C285.149 199.341 284.288 200.152 284.288 201.215Z" fill="#394679"/>
<path d="M315.688 182.072C315.688 182.072 321.006 181.869 323.184 188.2C323.184 188.2 324.399 181.768 315.536 175.083C306.673 168.448 291.024 173.968 289.758 176.805C288.492 179.641 288.644 181.869 288.644 181.869L315.688 182.072Z" fill="#F2875E"/>
<path d="M307.634 193.314C307.634 193.314 304.646 191.896 301.456 193.77" stroke="#F2875E" stroke-width="2.0538" stroke-miterlimit="10" stroke-linecap="round"/>
<path d="M320.143 192.909C320.143 192.909 317.155 191.491 313.965 193.365" stroke="#F2875E" stroke-width="2.0538" stroke-miterlimit="10" stroke-linecap="round"/>
<path d="M304.749 198.987C304.293 198.987 303.938 198.633 303.938 198.177V196.708C303.938 196.252 304.293 195.898 304.749 195.898C305.205 195.898 305.559 196.252 305.559 196.708V198.177C305.508 198.633 305.154 198.987 304.749 198.987Z" fill="#0A194D"/>
<path d="M316.954 198.987C316.498 198.987 316.144 198.633 316.144 198.177V196.708C316.144 196.252 316.498 195.898 316.954 195.898C317.41 195.898 317.764 196.252 317.764 196.708V198.177C317.764 198.633 317.41 198.987 316.954 198.987Z" fill="#0A194D"/>
<path opacity="0.17" d="M174 414L170.743 419.367C170.743 419.367 168.967 424.423 159.974 424.547C143.838 424.765 90.732 425.447 73.7083 424.547C73.7083 424.547 61.0886 423.958 66.2327 419.367C71.3398 414.776 73.8563 414 73.8563 414H174Z" fill="black"/>
<g opacity="0.7">
<path fill-rule="evenodd" clip-rule="evenodd" d="M139.202 87.0449C142.485 82.3648 148.576 70.4789 153.195 68.8065C156.171 67.7294 155.303 78.8716 155.34 80.9962C155.483 89.2159 154.683 97.3834 153.695 105.534C151.914 120.234 146.093 133.325 138.108 145.836C133.999 152.273 129.18 158.789 122.505 162.806C119.433 164.656 115.736 164.965 112.702 166.559C109.168 168.414 111.092 166.915 109.5 170.597C107.288 175.71 106.581 182.305 105.558 187.761C100.859 212.803 89.4845 345.185 91.4564 370.658C91.6315 372.916 88.4833 373.456 88.3261 370.699C87.4908 356.084 94.7192 254.877 98.3661 221.779C102.013 188.681 105.703 159.441 109.404 147.99C113.893 134.098 122.001 117.392 128.75 104.437C131.885 98.4179 135.302 92.6066 139.202 87.0449Z" fill="#04A577"/>
<path opacity="0.5" fill-rule="evenodd" clip-rule="evenodd" d="M163.565 249.375C172.106 243.104 181.351 254.938 173.622 261.21C169.349 264.676 164.883 263.443 162.368 260.554C160.736 262.544 159.208 264.625 157.74 266.382C153.267 271.737 149.039 277.22 144.999 282.83C136.606 294.486 129.413 306.8 121.892 318.889C114.471 330.82 107.108 342.813 100.381 355.046C94.6823 365.411 87.0866 377.604 85.1355 388.967C88.0958 364.868 99.3288 341.705 112.705 320.461C125.973 299.391 141.199 276.38 161.743 259.752C159.652 256.677 159.594 252.288 163.565 249.375Z" fill="#00C996"/>
<path fill-rule="evenodd" clip-rule="evenodd" d="M1.49432 190.602C6.2738 191.537 14.0834 202.349 18.0232 206.468C22.7052 211.364 26.9531 216.581 30.9571 222.048C39.5771 233.816 47.2861 246.327 53.8414 259.374C64.5283 280.643 73.0898 302.476 79.3033 325.637C83.1068 339.814 85.5694 354.509 87.0289 369.101C87.3045 371.853 90.1897 393.07 86.0323 393.642C82.2931 394.156 83.448 377.531 83.2676 375.27C81.2285 349.756 75.12 324.932 66.6231 300.884C64.7724 295.645 63.053 289.229 60.0932 284.515C57.9617 281.119 60.0779 282.303 56.3321 281.018C53.1158 279.914 49.4512 280.184 46.1576 278.833C39.0026 275.898 33.2735 270.202 28.2516 264.472C18.4921 253.337 10.7583 241.291 6.72697 227.023C4.49067 219.111 2.43562 211.154 1.2952 202.998C1.00019 200.89 -1.58411 190 1.49432 190.602Z" fill="#04A577"/>
<path fill-rule="evenodd" clip-rule="evenodd" d="M20.3555 10.713C38.3589 41.9353 53.1533 76.2322 62.7061 110.97C68.494 132.017 72.5417 153.614 76.5633 175.056C82.7901 208.255 88.68 241.452 90.3554 275.241C92.0409 309.226 95.374 348.424 84.2457 381.156C89.8043 347.924 84.5121 312.55 83.5751 279.111C83.1273 263.148 81.8297 247.341 80.1275 231.471C78.4757 216.076 75.7771 200.755 73.2641 185.481C72.04 178.042 70.7543 170.615 69.4454 163.192C69.0546 160.977 68.8896 154.405 67.4847 152.892C66.0706 151.369 58.8562 150.748 56.5912 149.631C52.0302 147.38 47.7401 144.183 43.9431 140.805C36.6644 134.329 30.3322 125.868 25.3344 117.528C13.7707 98.2288 9.14753 74.677 9.38121 52.3263C9.4261 47.9868 16.405 1.25747 13.6022 0.613964C13.7709 0.416327 13.9305 0.212261 14.081 0C16.203 3.55287 18.2853 7.12981 20.3555 10.713Z" fill="#00C996"/>
<path fill-rule="evenodd" clip-rule="evenodd" d="M214.671 123.319C214.949 122.918 216.757 120.132 215.846 120.31C217.7 119.947 213.297 123.383 217.915 121.275C215.722 123.346 216.988 126.037 217.017 128.824C217.065 133.35 216.308 137.838 215.455 142.267C214.109 149.267 212.102 156.073 209.19 162.584C202.842 176.773 192.063 190.433 179.267 199.304C172.95 203.684 166.759 205.175 159.554 207.191C155.004 208.465 154.643 210.819 152.227 215.235C147.198 224.433 142.259 233.598 137.823 243.105C132.528 254.459 127.387 265.825 122.537 277.378C106.2 316.295 92.9033 356.614 85.9203 398.34C85.7493 373.751 91.4375 348.426 98.6127 324.989C103.839 307.913 110.643 291.453 117.901 275.159C119.659 271.211 122.324 266.133 123.071 261.775C123.594 258.722 121.995 255.785 121.263 252.569C118.41 240.042 118.614 226.009 121.12 213.416C123.883 199.53 131.873 193.085 145.39 191.118C150.334 190.398 156.617 190.662 161.15 188.554C166.088 186.259 168.125 178.714 170.934 173.871C178.476 160.862 187.438 148.385 197.729 137.423C200.578 134.388 203.643 131.587 206.893 128.992C208.943 127.354 213.274 125.337 214.671 123.319Z" fill="#00C996"/>
<path fill-rule="evenodd" clip-rule="evenodd" d="M63.1028 371.784H111.073C113.23 371.784 114.978 373.532 114.978 375.689C114.978 375.88 114.964 376.07 114.937 376.259L111.229 401.4C110.099 409.064 103.522 414.742 95.775 414.742H78.401C70.654 414.742 64.0773 409.064 62.947 401.4L59.2393 376.259C58.9247 374.125 60.3993 372.14 62.5331 371.825C62.7217 371.798 62.9121 371.784 63.1028 371.784Z" fill="#9A635A"/>
</g>
<path d="M178.042 343.572H98.1208C97.8972 343.572 97.7056 343.38 97.7056 343.125V331.465C97.7056 329.07 99.5583 327.121 101.858 327.121H176.924C178.138 327.121 179.128 328.143 179.128 329.421L180.566 340.952C180.534 342.39 179.416 343.572 178.042 343.572Z" fill="#C4C4C4"/>
<path d="M179.159 338.237L98.0879 338.269C97.8643 338.269 97.6726 338.141 97.6726 337.982V330.06C97.6726 328.431 99.5253 327.121 101.825 327.121H176.891C178.105 327.121 179.095 327.824 179.095 328.686L180.054 336.385C180.054 337.343 180.086 338.237 179.159 338.237Z" fill="#D8D8D8"/>
<path d="M169.322 344.817H91.3491V301.056C91.3491 298.372 93.5212 296.2 96.2045 296.2H169.354C172.037 296.2 174.209 298.372 174.209 301.056V339.962C174.177 342.645 172.005 344.817 169.322 344.817Z" fill="#ECECEC"/>
<path d="M174.177 300.8H91.3491V299.65C91.3491 297.765 92.8824 296.232 94.767 296.232H170.759C172.644 296.232 174.177 297.765 174.177 299.65V300.8Z" fill="#D9DCD8"/>
<path d="M174.114 340.729H87.6118V414.709H174.114V340.729Z" fill="#D8D8D8"/>
<path d="M161.881 318.465H95.9824V278.855C95.9824 276.172 98.1546 274 100.838 274H161.881C164.564 274 166.736 276.172 166.736 278.855V313.641C166.704 316.325 164.532 318.465 161.881 318.465Z" fill="#D8D8D8"/>
<path d="M161.88 326.386H100.805C98.1213 326.386 95.9492 324.214 95.9492 321.531V286.745C95.9492 284.062 98.1213 281.89 100.805 281.89H161.848C164.531 281.89 166.703 284.062 166.703 286.745V321.531C166.703 324.214 164.531 326.386 161.88 326.386Z" fill="#F4F4F4"/>
<path d="M165.585 340.729H87.6118V301.087C87.6118 298.404 89.7839 296.232 92.4672 296.232H165.617C168.3 296.232 170.472 298.404 170.472 301.087V335.873C170.44 338.556 168.268 340.729 165.585 340.729Z" fill="#F4F4F4"/>
<path d="M170.44 304.122L87.6118 303.611V300.991C87.6118 298.372 89.6242 296.264 92.1158 296.264H165.904C168.396 296.264 170.408 298.372 170.408 300.991L170.44 304.122Z" fill="#D8D8D8"/>
<path d="M107.831 326.099H95.9804C95.2776 326.099 94.7026 325.524 94.7026 324.821C94.7026 324.118 95.2776 323.543 95.9804 323.543H107.831C108.534 323.543 109.109 324.118 109.109 324.821C109.109 325.524 108.534 326.099 107.831 326.099Z" fill="#D8D8D8"/>
<path d="M160.699 337.119H150.924C150.221 337.119 149.646 336.544 149.646 335.841C149.646 335.139 150.221 334.564 150.924 334.564H160.699C161.402 334.564 161.976 335.139 161.976 335.841C161.976 336.544 161.402 337.119 160.699 337.119Z" fill="#D8D8D8"/>
<path d="M165.84 337.151C166.545 337.151 167.117 336.579 167.117 335.873C167.117 335.168 166.545 334.596 165.84 334.596C165.134 334.596 164.562 335.168 164.562 335.873C164.562 336.579 165.134 337.151 165.84 337.151Z" fill="#D8D8D8"/>
<path d="M166.701 278.376L128.881 285.212C127.826 285.403 127.028 286.362 127.028 287.512V291.345C127.028 292.399 127.826 293.229 128.817 293.229H166.701V278.376Z" fill="#C4C4C4"/>
<path d="M170.44 316.548H87.6118V317.634H170.44V316.548Z" fill="white"/>
<path d="M87.5151 372.32H174.177" stroke="#9E9E9E" stroke-width="2" stroke-miterlimit="10"/>
<path d="M138.88 378.709H123.611C122.781 378.709 122.11 378.038 122.11 377.208V372.288H140.35V377.208C140.35 378.038 139.679 378.709 138.88 378.709Z" stroke="#9E9E9E" stroke-width="2" stroke-miterlimit="10"/>
<path d="M87.5151 387.589H174.177" stroke="#9E9E9E" stroke-width="2" stroke-miterlimit="10"/>
<path d="M138.88 393.978H123.611C122.781 393.978 122.11 393.307 122.11 392.476V387.557H140.35V392.476C140.35 393.307 139.679 393.978 138.88 393.978Z" stroke="#9E9E9E" stroke-width="2" stroke-miterlimit="10"/>
<path d="M87.5151 402.858H174.177" stroke="#9E9E9E" stroke-width="2" stroke-miterlimit="10"/>
<path d="M138.975 409.278H123.706C122.876 409.278 122.205 408.608 122.205 407.777V402.858H140.445V407.777C140.445 408.608 139.774 409.278 138.975 409.278Z" stroke="#9E9E9E" stroke-width="2" stroke-miterlimit="10"/>
<path fill-rule="evenodd" clip-rule="evenodd" d="M129.521 330.155H123.42C123.228 330.155 123.068 329.996 123.068 329.804V319.806C123.068 319.614 123.228 319.454 123.42 319.454H129.521C129.713 319.454 129.872 319.614 129.872 319.806V329.804C129.872 330.027 129.713 330.155 129.521 330.155Z" fill="#D8D8D8"/>
<path fill-rule="evenodd" clip-rule="evenodd" d="M128.978 329.293H124.027C123.835 329.293 123.676 329.133 123.676 328.942V320.7C123.676 320.509 123.835 320.349 124.027 320.349H128.978C129.17 320.349 129.33 320.509 129.33 320.7V328.942C129.33 329.133 129.17 329.293 128.978 329.293Z" fill="#BCBCBC"/>
<path d="M126.487 325.172C126.681 325.172 126.838 325.015 126.838 324.821C126.838 324.627 126.681 324.469 126.487 324.469C126.293 324.469 126.135 324.627 126.135 324.821C126.135 325.015 126.293 325.172 126.487 325.172Z" fill="white"/>
<path d="M125.752 325.524C125.56 325.332 125.464 325.077 125.464 324.821C125.464 324.534 125.56 324.31 125.752 324.118" stroke="white" stroke-width="0.25" stroke-miterlimit="10"/>
<path d="M127.221 324.118C127.381 324.31 127.508 324.534 127.508 324.821C127.508 325.077 127.413 325.332 127.253 325.492" stroke="white" stroke-width="0.25" stroke-miterlimit="10"/>
<path d="M125.336 325.939C125.048 325.651 124.888 325.268 124.888 324.821C124.888 324.374 125.048 323.99 125.336 323.703" stroke="white" stroke-width="0.25" stroke-miterlimit="10"/>
<path d="M127.636 323.735C127.891 324.022 128.083 324.406 128.083 324.821C128.083 325.236 127.923 325.619 127.668 325.907" stroke="white" stroke-width="0.25" stroke-miterlimit="10"/>
<path d="M124.921 326.322C124.538 325.939 124.314 325.396 124.314 324.821C124.314 324.246 124.538 323.703 124.921 323.32" stroke="white" stroke-width="0.25" stroke-miterlimit="10"/>
<path d="M128.083 323.32C128.435 323.703 128.69 324.246 128.69 324.821C128.69 325.396 128.467 325.907 128.115 326.29" stroke="white" stroke-width="0.25" stroke-miterlimit="10"/>
<path fill-rule="evenodd" clip-rule="evenodd" d="M168.523 330.059H132.3C132.14 330.059 132.044 329.931 132.044 329.804V308.178C132.044 308.018 132.172 307.923 132.3 307.923H168.491C168.651 307.923 168.747 308.05 168.747 308.178V329.804C168.779 329.931 168.651 330.059 168.523 330.059Z" fill="#E0E0E0"/>
<path d="M168.779 330.059H132.268C132.14 330.059 132.013 329.932 132.013 329.804V308.114C132.013 307.987 132.14 307.859 132.268 307.859H168.556C168.683 307.859 168.811 307.987 168.811 308.114L168.779 330.059C168.811 330.059 168.811 330.059 168.779 330.059ZM132.268 307.923C132.14 307.923 132.077 308.019 132.077 308.114V329.804C132.077 329.932 132.172 329.995 132.268 329.995H168.556C168.683 329.995 168.747 329.9 168.747 329.804V308.114C168.747 307.987 168.651 307.923 168.556 307.923H132.268Z" fill="#9E9E9E"/>
<path d="M165.104 309.488H133.64V328.43H165.104V309.488Z" fill="white"/>
<path d="M165.136 328.494H133.609V309.488H165.136V328.494ZM133.673 328.398H165.073V309.52H133.673V328.398Z" fill="#4C4C4C"/>
<path d="M168.203 317.601H165.711V319.677H168.203V317.601Z" fill="white"/>
<path d="M168.076 319.709H165.808C165.712 319.709 165.648 319.645 165.648 319.55V317.697C165.648 317.601 165.712 317.537 165.808 317.537H168.076C168.171 317.537 168.235 317.601 168.235 317.697V319.55C168.235 319.645 168.171 319.709 168.076 319.709ZM165.84 317.633C165.808 317.633 165.744 317.665 165.744 317.729V319.581C165.744 319.613 165.776 319.677 165.84 319.677H168.108C168.139 319.677 168.203 319.645 168.203 319.581V317.729C168.203 317.697 168.171 317.633 168.108 317.633H165.84Z" fill="#9E9E9E"/>
<path d="M167.5 319.295H167.149C167.117 319.295 167.117 319.263 167.117 319.263V318.879H166.862V319.263C166.862 319.295 166.83 319.295 166.83 319.295H166.478C166.446 319.295 166.446 319.263 166.446 319.263V318.464C166.446 318.432 166.478 318.432 166.478 318.432C166.51 318.432 166.51 318.464 166.51 318.464V319.199H166.766V318.815C166.766 318.784 166.798 318.784 166.798 318.784H167.149C167.181 318.784 167.181 318.815 167.181 318.815V319.199H167.437V318.464C167.437 318.432 167.468 318.432 167.468 318.432L167.5 318.464V319.263C167.532 319.295 167.5 319.295 167.5 319.295Z" fill="#9E9E9E"/>
<path d="M166.287 318.624C166.287 318.624 166.255 318.624 166.255 318.592C166.223 318.56 166.255 318.528 166.255 318.528L166.926 317.953C166.958 317.953 166.958 317.953 166.99 317.953L167.661 318.528C167.693 318.56 167.693 318.56 167.661 318.592C167.629 318.624 167.629 318.624 167.597 318.592L166.958 318.049L166.287 318.624Z" fill="#9E9E9E"/>
<g opacity="0.5">
<path opacity="0.5" fill-rule="evenodd" clip-rule="evenodd" d="M149.139 314.587C151.78 314.971 154.528 316.213 154.505 319.288C154.486 321.873 152.317 324.625 149.533 324.47C147.028 324.331 144.668 321.591 144.355 319.243C144.192 318.027 144.496 316.717 145.212 315.716C146.149 314.405 147.637 314.407 149.139 314.587ZM147.891 312.916C145.981 312.927 144.583 313.618 143.4 315.077C142.976 315.6 142.483 316.163 142.16 316.755C141.859 317.309 141.912 318.716 142.946 318.056C142.691 320.781 144.284 323.426 146.573 324.822C149.062 326.34 151.874 326.044 153.945 323.917C155.841 321.969 156.508 318.68 155.121 316.272C153.735 313.864 150.524 312.89 147.891 312.916Z" fill="#FF803B"/>
<path opacity="0.5" fill-rule="evenodd" clip-rule="evenodd" d="M153.62 312.186C152.397 313.082 151.28 314.263 150.352 315.46C149.446 316.631 148.846 318.092 147.757 319.112C147.207 318.513 146.562 316.895 145.465 317.537C144.555 318.07 145.141 318.986 145.584 319.587C146.73 321.141 148.001 321.766 149.47 320.231C150.804 318.837 151.561 316.978 152.808 315.505C153.355 314.858 154.2 314.216 154.636 313.502C155.031 312.855 154.542 311.508 153.62 312.186Z" fill="#FF803B"/>
</g>
</svg>
