<svg width="84" height="90" viewBox="0 0 84 90" fill="none" xmlns="http://www.w3.org/2000/svg">
<path fill-rule="evenodd" clip-rule="evenodd" d="M48.606 49.38H77.1068C78.9345 49.3858 80.6855 50.111 81.9772 51.3969C83.2689 52.6829 83.9961 54.4251 84 56.2428V83.1372C83.9961 84.9549 83.2689 86.6971 81.9772 87.9831C80.6855 89.2691 78.9345 89.9942 77.1068 90H48.606C46.7771 89.9961 45.0241 89.2719 43.7309 87.9857C42.4376 86.6995 41.7093 84.9562 41.7054 83.1372V56.2428C41.7113 54.4245 42.4401 52.6823 43.733 51.3965C45.0258 50.1107 46.7776 49.3858 48.606 49.38ZM15.0973 49.4972C14.5386 49.4669 14.0142 49.2197 13.6368 48.8088C13.2594 48.3979 13.0593 47.8561 13.0794 47.3C13.0646 47.0234 13.1052 46.7467 13.199 46.4859C13.2928 46.2251 13.4378 45.9854 13.6256 45.7809C13.8134 45.5764 14.0402 45.4112 14.2929 45.2947C14.5456 45.1783 14.819 45.113 15.0973 45.1027H32.3156C32.8744 45.133 33.3988 45.3802 33.7761 45.7911C34.1535 46.202 34.3536 46.7438 34.3335 47.3C34.3484 47.5765 34.3077 47.8533 34.214 48.1141C34.1202 48.3748 33.9752 48.6145 33.7874 48.819C33.5996 49.0235 33.3727 49.1888 33.12 49.3052C32.8674 49.4216 32.5939 49.4869 32.3156 49.4972H15.0973ZM64.6533 13.323H71.8927C72.5696 13.3204 73.2403 13.4526 73.8651 13.7117C74.4899 13.9708 75.0562 14.3517 75.5308 14.8318C76.0121 15.3067 76.3946 15.8714 76.6561 16.4935C76.9177 17.1156 77.0534 17.783 77.0552 18.4573V42.759H72.6365V18.4573C72.638 18.3597 72.6199 18.2627 72.5833 18.1722C72.5466 18.0816 72.4921 17.9993 72.4229 17.9299C72.2828 17.7955 72.0948 17.7218 71.9001 17.7249H64.6313V42.759H60.2125V5.12725C60.2125 4.933 60.1349 4.74671 59.9968 4.60936C59.8587 4.472 59.6714 4.39483 59.4761 4.39483H5.15519C5.05826 4.39428 4.96218 4.41275 4.87246 4.4492C4.78273 4.48565 4.70112 4.53935 4.6323 4.60724C4.56405 4.67567 4.51005 4.75684 4.4734 4.84607C4.43675 4.93531 4.41817 5.03086 4.41873 5.12725V66.1817C4.41873 66.376 4.49632 66.5623 4.63443 66.6996C4.77255 66.837 4.95987 66.9141 5.15519 66.9141H33.7664V71.3087H16.828V79.4898C16.828 79.684 16.9056 79.8703 17.0437 80.0077C17.1818 80.145 17.3691 80.2222 17.5644 80.2222H33.7664V84.6167H17.5644C16.2002 84.6071 14.8945 84.0639 13.9298 83.1045C12.9651 82.1451 12.4189 80.8466 12.4093 79.4898V71.316H5.15519C3.79093 71.3064 2.48528 70.7632 1.52058 69.8037C0.555876 68.8443 0.00964675 67.5458 4.97827e-06 66.1891V5.12725C-0.000940156 4.45426 0.132701 3.78779 0.393151 3.16664C0.653602 2.54549 1.03566 1.98205 1.5171 1.5091C2.48095 0.546745 3.78941 0.00410373 5.15519 0.000319334H59.4908C60.175 -0.00732512 60.8538 0.122351 61.4865 0.381593C62.1192 0.640835 62.6928 1.02432 63.1731 1.5091C64.1272 2.47364 64.6593 3.77419 64.6533 5.12725V13.323ZM15.0458 20.9841C14.487 20.9538 13.9626 20.7066 13.5853 20.2957C13.2079 19.8848 13.0078 19.343 13.0279 18.7869C13.012 18.5101 13.052 18.2329 13.1453 17.9717C13.2387 17.7105 13.3837 17.4705 13.5717 17.2657C13.7597 17.061 13.9869 16.8958 14.2401 16.7797C14.4932 16.6635 14.7672 16.5989 15.0458 16.5896H49.5339C50.0927 16.62 50.6171 16.8672 50.9945 17.2781C51.3718 17.689 51.5719 18.2307 51.5518 18.7869C51.5667 19.0634 51.526 19.3402 51.4323 19.601C51.3385 19.8618 51.1935 20.1014 51.0057 20.3059C50.8179 20.5104 50.591 20.6757 50.3384 20.7921C50.0857 20.9086 49.8122 20.9738 49.5339 20.9841H15.0458ZM15.0458 35.237C14.4864 35.2085 13.9608 34.9619 13.5831 34.5506C13.2053 34.1392 13.0058 33.5964 13.0279 33.0398C13.012 32.763 13.052 32.4858 13.1453 32.2246C13.2387 31.9634 13.3837 31.7233 13.5717 31.5186C13.7597 31.3139 13.9869 31.1486 14.2401 31.0325C14.4932 30.9164 14.7672 30.8518 15.0458 30.8425H49.5339C50.0933 30.871 50.6189 31.1176 50.9966 31.529C51.3744 31.9403 51.5739 32.4831 51.5518 33.0398C51.5677 33.3165 51.5277 33.5937 51.4344 33.8549C51.341 34.1162 51.196 34.3562 51.008 34.5609C50.82 34.7656 50.5928 34.9309 50.3396 35.047C50.0865 35.1631 49.8125 35.2277 49.5339 35.237H15.0458ZM71.7528 68.4083C72.0468 68.3963 72.3392 68.4569 72.6039 68.5847C72.8687 68.7125 73.0974 68.9035 73.2699 69.1407C74.0652 70.3272 72.9826 71.4991 72.2241 72.3267C70.0884 74.6558 65.2499 78.9185 64.1967 80.1123C64.0341 80.318 63.8266 80.4843 63.59 80.5986C63.3534 80.7129 63.0937 80.7723 62.8306 80.7723C62.5675 80.7723 62.3079 80.7129 62.0712 80.5986C61.8346 80.4843 61.6271 80.318 61.4645 80.1123C60.3893 78.816 55.3004 74.3409 53.2678 72.0704C52.5313 71.2794 51.6917 70.2027 52.4282 69.1407C52.6006 68.9035 52.8294 68.7125 53.0941 68.5847C53.3589 68.4569 53.6513 68.3963 53.9453 68.4083H57.7454V61.6261C57.7473 61.0614 57.9738 60.5204 58.3752 60.1211C58.7767 59.7218 59.3207 59.4967 59.8885 59.4947H65.8538C66.4215 59.4967 66.9655 59.7218 67.367 60.1211C67.7685 60.5204 67.9949 61.0614 67.9968 61.6261V68.4083H71.7528Z" fill="black"/>
</svg>
