<?xml version="1.0" encoding="UTF-8"?>
<svg id="Calque_2" data-name="Calque 2" xmlns="http://www.w3.org/2000/svg" viewBox="0 0 71.08 65.47">
  <defs>
    <style>
      .cls-1, .cls-2 {
        stroke: #000;
        stroke-linecap: round;
        stroke-linejoin: round;
        stroke-width: 3px;
      }

      .cls-2 {
        fill: none;
      }
    </style>
  </defs>
  <g id="Calque_2-2" data-name="Calque 2-2">
    <path class="cls-2" d="m24.1,24.67V5c0-1.93,1.57-3.5,3.5-3.5h27.82"/>
    <path class="cls-2" d="m69.58,14.16v46.31c0,1.93-1.57,3.5-3.5,3.5H27.6c-1.93,0-3.5-1.57-3.5-3.5v-8.49"/>
    <path class="cls-2" d="m35.88,52.17l28.4.08"/>
    <path class="cls-2" d="m40.82,32.49c7.81.02,15.62.03,23.43.05"/>
    <path class="cls-2" d="m43.35,39.5l20.93.09"/>
    <path class="cls-2" d="m40.82,46.12c7.81.03,15.62.06,23.43.08"/>
    <path class="cls-1" d="m55.37,1.58v10.66c0,1.06.86,1.92,1.92,1.92h12.29L55.37,1.58Z"/>
    <ellipse class="cls-2" cx="24.66" cy="38.32" rx="13.1" ry="13.66"/>
    <path class="cls-2" d="m15.74,36c.26-2.85,2.29-5.5,5.19-6.75,2.05-.88,4.02-.84,5.39-.61"/>
    <rect class="cls-1" x="-.12" y="54.32" width="15.55" height="3.07" rx="1.03" ry="1.03" transform="translate(-37.25 21.77) rotate(-45)"/>
    <path class="cls-2" d="m35.51,25.44c9.58.03,19.16.07,28.74.1"/>
    <path class="cls-1" d="m12.91,50.4c.84-.72,1.67-1.43,2.51-2.15"/>
  </g>
</svg>