<?xml version="1.0" encoding="UTF-8"?>
<svg id="Calque_2" data-name="Calque 2" xmlns="http://www.w3.org/2000/svg" viewBox="0 0 1719.52 1581.91">
  <defs>
    <style>
      .cls-1, .cls-2 {
        stroke: #000;
        stroke-linecap: round;
        stroke-linejoin: round;
        stroke-width: 50px;
      }

      .cls-2 {
        fill: none;
      }
    </style>
  </defs>
  <g id="Calque_2-2" data-name="Calque 2">
    <path class="cls-2" d="m579.29,593.14V110.79c0-47.38,38.41-85.79,85.79-85.79h682.21"/>
    <path class="cls-2" d="m1694.52,335.47v1135.66c0,47.38-38.41,85.79-85.79,85.79h-943.66c-47.38,0-85.79-38.41-85.79-85.79v-208.23"/>
    <path class="cls-2" d="m868.03,1267.56l696.51,2.04"/>
    <path class="cls-2" d="m989.29,785c191.5.37,383.01.74,574.51,1.11"/>
    <path class="cls-2" d="m1051.31,956.74l513.24,2.17"/>
    <path class="cls-2" d="m989.29,1119.16c191.5.69,383.01,1.37,574.51,2.06"/>
    <path class="cls-1" d="m1345.99,27.04v261.45c0,25.95,21.11,46.98,47.15,46.98h301.38L1345.99,27.04Z"/>
    <ellipse class="cls-2" cx="593.05" cy="927.86" rx="321.22" ry="335.03"/>
    <path class="cls-2" d="m374.11,871.03c6.27-70.01,56.12-134.99,127.27-165.59,50.34-21.65,98.46-20.54,132.25-14.88"/>
    <rect class="cls-1" x="138.31" y="1167.17" width="75.33" height="381.33" rx="25.29" ry="25.29" transform="translate(1011.68 273.27) rotate(45)"/>
    <path class="cls-2" d="m859.12,611.96c234.89.82,469.79,1.63,704.68,2.45"/>
    <path class="cls-1" d="m304.82,1224.23c20.53-17.55,41.06-35.11,61.59-52.66"/>
  </g>
</svg>