<svg width="77" height="90" viewBox="0 0 77 90" fill="none" xmlns="http://www.w3.org/2000/svg">
<path fill-rule="evenodd" clip-rule="evenodd" d="M0.432507 71.0449C-0.645541 75.249 0.329836 79.9878 2.93328 84.0601C6.26277 66.7456 26.6723 74.1064 16.1925 90C25.2643 89.2676 30.1632 82.2729 29.9725 73.6597C29.8845 69.6021 29.9725 67.3975 30.6105 65.5518C30.9084 64.7155 31.3205 63.9243 31.8352 63.2007C31.4009 62.1762 31.1741 61.0759 31.1679 59.9634V59.751C31.1864 58.4803 31.487 57.2295 32.0479 56.0889L26.599 50.7935L25.0883 52.793C23.607 54.5526 21.9726 56.1776 20.2041 57.6489C19.1557 58.3037 18.0233 58.8137 16.8379 59.165C9.53358 61.6626 2.67661 62.3364 0.432507 71.0449ZM43.0851 55.6641L10.817 24.2871L6.41677 23.5107C5.88929 23.4116 5.40381 23.1565 5.02338 22.7783L1.27588 19.1162C0.769664 18.622 0.480063 17.9477 0.470442 17.2408C0.460821 16.5339 0.731965 15.852 1.22454 15.3442L5.74941 10.7812C6.2498 10.283 6.92757 10.0032 7.63416 10.0032C8.34075 10.0032 9.01852 10.283 9.51891 10.7812L12.8411 14.0698C13.2133 14.434 13.4686 14.9006 13.5744 15.4102L15.0412 20.7642L46.9352 51.8481L50.184 48.5815C50.2318 48.5328 50.2889 48.4941 50.3519 48.4677C50.4148 48.4413 50.4824 48.4277 50.5507 48.4277C50.619 48.4277 50.6866 48.4413 50.7496 48.4677C50.8126 48.4941 50.8696 48.5328 50.9174 48.5815L53.0368 50.6763C53.1268 50.7636 53.1816 50.8809 53.1908 51.0059C53.2789 51.6577 53.3302 52.1851 53.3815 52.6318C53.4915 53.7231 53.5502 54.2725 53.7482 54.4629C53.9462 54.6533 54.4816 54.6826 55.5449 54.7559C55.9996 54.7559 56.5497 54.8291 57.283 54.9023C57.4025 54.9111 57.5147 54.9632 57.5984 55.0488L73.8938 71.4551C75.2103 72.5255 76.1723 73.9682 76.6539 75.594C77.1354 77.2198 77.1141 78.9529 76.5926 80.5664C76.2029 81.7707 75.5547 82.8755 74.6931 83.8037C73.8392 84.7317 72.7792 85.4466 71.5983 85.8911C68.8482 86.9092 65.4087 86.3745 62.1599 83.1006L46.5906 67.3828C46.5052 67.2952 46.4511 67.1819 46.4365 67.0605C46.3045 66.1743 46.2239 65.4565 46.1579 64.8633C46.0185 63.6841 45.9452 63.0689 45.7105 62.8418C45.4758 62.6147 44.7865 62.5708 43.4077 62.5269C42.9311 62.5269 42.3737 62.5269 41.721 62.4609C41.5943 62.4554 41.4741 62.4032 41.3837 62.3145L39.3009 60.2563C39.2042 60.1589 39.1499 60.0273 39.1499 59.8901C39.1499 59.7529 39.2042 59.6213 39.3009 59.5239L43.0924 55.7007L43.0851 55.6641ZM51.5481 66.3867C51.427 66.2669 51.3309 66.1243 51.2654 65.9671C51.1998 65.81 51.166 65.6414 51.166 65.4712C51.166 65.3009 51.1998 65.1324 51.2654 64.9753C51.3309 64.8181 51.427 64.6755 51.5481 64.5557C51.7927 64.3128 52.1236 64.1765 52.4685 64.1765C52.8134 64.1765 53.1443 64.3128 53.3889 64.5557L67.4695 78.8086C67.7145 79.0514 67.853 79.3815 67.8544 79.7263C67.8558 80.071 67.7199 80.4022 67.4768 80.647C67.2337 80.8917 66.9032 81.03 66.558 81.0314C66.2128 81.0327 65.8811 80.8971 65.6361 80.6543L51.5481 66.3867ZM55.4203 62.4756C55.1752 62.2337 55.0364 61.9046 55.0343 61.5605C55.0322 61.2164 55.1671 60.8856 55.4093 60.6409C55.6514 60.3961 55.981 60.2575 56.3255 60.2554C56.6701 60.2533 57.0013 60.388 57.2464 60.6299L71.3636 74.8975C71.485 75.0172 71.5815 75.1597 71.6478 75.3167C71.714 75.4737 71.7486 75.6422 71.7496 75.8125C71.7506 75.9829 71.7181 76.1518 71.6537 76.3096C71.5894 76.4674 71.4946 76.611 71.3746 76.7322C71.2547 76.8534 71.1121 76.9498 70.9549 77.0159C70.7977 77.0821 70.629 77.1166 70.4584 77.1177C70.2878 77.1187 70.1187 77.0861 69.9607 77.0219C69.8027 76.9576 69.6589 76.8629 69.5376 76.7432L55.4203 62.4756ZM49.1353 40.5469L53.4915 34.856C58.7351 27.7441 72.405 31.9263 75.7565 18.9258C76.8272 14.751 75.8519 10.0195 73.2704 5.93994C69.9409 23.2544 49.5387 15.8936 60.0185 0C50.9467 0.732422 46.0479 7.72705 46.2385 16.3403C46.3265 20.1196 47.3899 23.2031 43.8038 27.9932L39.6016 33.5669L47.3019 41.0596C47.8917 40.8199 48.5067 40.6479 49.1353 40.5469Z" fill="black"/>
</svg>
