<?xml version="1.0" encoding="UTF-8"?>
<svg id="Calque_2" data-name="Calque 2" xmlns="http://www.w3.org/2000/svg" viewBox="0 0 487.11 326.6">
  <defs>
    <style>
      .cls-1 {
        fill: #e0e0e0;
      }

      .cls-1, .cls-2, .cls-3, .cls-4, .cls-5, .cls-6, .cls-7, .cls-8, .cls-9, .cls-10, .cls-11, .cls-12, .cls-13, .cls-14, .cls-15, .cls-16, .cls-17, .cls-18, .cls-19, .cls-20, .cls-21, .cls-22, .cls-23, .cls-24, .cls-25, .cls-26, .cls-27, .cls-28, .cls-29, .cls-30, .cls-31, .cls-32, .cls-33, .cls-34, .cls-35, .cls-36, .cls-37, .cls-38, .cls-39, .cls-40, .cls-41, .cls-42, .cls-43, .cls-44, .cls-45, .cls-46, .cls-47, .cls-48, .cls-49, .cls-50, .cls-51, .cls-52, .cls-53, .cls-54, .cls-55, .cls-56, .cls-57, .cls-58, .cls-59, .cls-60, .cls-61, .cls-62, .cls-63, .cls-64, .cls-65, .cls-66 {
        stroke-width: 0px;
      }

      .cls-1, .cls-3, .cls-6, .cls-35, .cls-38, .cls-56, .cls-57, .cls-59, .cls-60, .cls-62, .cls-63 {
        fill-rule: evenodd;
      }

      .cls-2 {
        fill: #dcdcdc;
      }

      .cls-3, .cls-63 {
        fill: #9a635a;
      }

      .cls-4 {
        fill: #394679;
      }

      .cls-5 {
        fill: #6e88c3;
      }

      .cls-6, .cls-67, .cls-35, .cls-63 {
        opacity: .7;
      }

      .cls-6, .cls-22, .cls-26, .cls-34, .cls-35, .cls-38, .cls-39, .cls-49, .cls-56, .cls-63 {
        isolation: isolate;
      }

      .cls-6, .cls-25, .cls-38, .cls-62 {
        fill: #00c996;
      }

      .cls-7 {
        fill: #f3a790;
      }

      .cls-68 {
        stroke: #f2875e;
        stroke-width: 2.05px;
      }

      .cls-68, .cls-69, .cls-70, .cls-71, .cls-72, .cls-73 {
        fill: none;
        stroke-miterlimit: 10;
      }

      .cls-68, .cls-69, .cls-71, .cls-72 {
        stroke-linecap: round;
      }

      .cls-74, .cls-38, .cls-56 {
        opacity: .5;
      }

      .cls-8 {
        fill: #838282;
      }

      .cls-9 {
        fill: #9b9593;
      }

      .cls-10 {
        fill: #ececec;
      }

      .cls-69 {
        stroke-width: 2.07px;
      }

      .cls-69, .cls-73 {
        stroke: #fff;
      }

      .cls-11, .cls-26, .cls-39, .cls-49 {
        fill: #6c1a48;
      }

      .cls-12 {
        fill: #ffc6af;
      }

      .cls-13 {
        fill: #f04747;
      }

      .cls-14 {
        fill: #f2875e;
      }

      .cls-15 {
        fill: #313d6e;
      }

      .cls-16 {
        fill: #9e9e9e;
      }

      .cls-17 {
        fill: #0a0a2c;
      }

      .cls-18 {
        fill: #c4c4c4;
      }

      .cls-19, .cls-35, .cls-60 {
        fill: #04a577;
      }

      .cls-20 {
        fill: #716f81;
      }

      .cls-21 {
        fill: #b0adc0;
      }

      .cls-22 {
        opacity: .2;
      }

      .cls-22, .cls-28 {
        fill: #081344;
      }

      .cls-23 {
        fill: #0a194d;
      }

      .cls-24 {
        fill: #a19eaf;
      }

      .cls-26 {
        opacity: .33;
      }

      .cls-27 {
        fill: #794061;
      }

      .cls-29 {
        fill: #d16552;
      }

      .cls-30 {
        fill: #2d2d3a;
      }

      .cls-31 {
        fill: #fff;
      }

      .cls-32 {
        fill: #f0ad9a;
      }

      .cls-33 {
        fill: #6075af;
      }

      .cls-34 {
        opacity: .17;
      }

      .cls-36 {
        fill: #ffc443;
      }

      .cls-37 {
        fill: #4c4c4c;
      }

      .cls-39 {
        opacity: .48;
      }

      .cls-40 {
        fill: #7c4b39;
      }

      .cls-70 {
        stroke: #9e9e9e;
        stroke-width: 2px;
      }

      .cls-41 {
        fill: #ebedef;
      }

      .cls-42 {
        fill: #ffbd62;
      }

      .cls-43 {
        fill: #874c2e;
      }

      .cls-44 {
        fill: #072859;
      }

      .cls-45 {
        fill: #fbbaa3;
      }

      .cls-46 {
        fill: #f4f4f4;
      }

      .cls-47 {
        fill: #1c1c2d;
      }

      .cls-71 {
        stroke-width: 1.11px;
      }

      .cls-71, .cls-72 {
        stroke: #0a194d;
      }

      .cls-72 {
        stroke-width: 1.18px;
      }

      .cls-48 {
        fill: #fb9e7b;
      }

      .cls-49 {
        opacity: .37;
      }

      .cls-50 {
        fill: #84808d;
      }

      .cls-51 {
        fill: #d9dcd8;
      }

      .cls-52 {
        fill: #ffdbd3;
      }

      .cls-53 {
        fill: #2f558b;
      }

      .cls-54 {
        fill: #a26440;
      }

      .cls-55 {
        fill: #f3a12a;
      }

      .cls-73 {
        stroke-width: .25px;
      }

      .cls-56 {
        fill: #ff803b;
      }

      .cls-57 {
        fill: #bcbcbc;
      }

      .cls-58 {
        fill: #ffbc48;
      }

      .cls-59, .cls-65 {
        fill: #d8d8d8;
      }

      .cls-61 {
        fill: #d9d9df;
      }

      .cls-64 {
        fill: #25253a;
      }

      .cls-66 {
        fill: #e95444;
      }
    </style>
  </defs>
  <g id="Calque_1-2" data-name="Calque 1">
    <path class="cls-6" d="m295.31,116.67c4.84-.25,10.83,2.57,11.34,7.84.38,3.82.26,7.64.84,11.45.46,3.05,1.45,5.98,2.79,8.76,1.29,2.67,3.96,4.95,4.65,7.8.44,1.82.2,4.38-.42,6.16-.74,2.16-.35,1.99,1.13,3.81,2.9,3.56,5.51,7.21,7.36,11.46,2.66,6.12,4.4,13.27,3.42,19.97-.13.85-.27,3.9-1.45,4.12-1.31.24-.7-1.51-.63-2.07.45-3.6.84-6.74.3-10.4-2.07-14.1-12.19-23.39-18.78-35.36-.36-.62-1.13-2.09-1.66-3.06-.84-1.53-1.68-4.44-2.82-5.58-2.14-2.14-.17,2.16.24,2.98.53,1.04,1.11,2.14,1.65,3.05,2.47,4.22,5.23,8.82,7.78,13.17-11.04,2.52-18.82-10.76-21.78-19.48-2.44-7.19-5.36-24,6.01-24.61Z"/>
    <path class="cls-35" d="m360.19,103.32c-8.09.64-13.29,5.98-15.71,13.45-1.3,4.03-1.45,8.16-2.18,12.3-1.09,6.22-3.43,10.94-8.02,15.37-1.42,1.37-2.46,2.78-3.21,4.29-1.48,1.51-2.76,3.21-3.7,5.29-1.21,2.66-1.55,5.85-.15,8.51.37.71,1.31,2.15,2.28,2.8-3.62,7.72-5.62,16.17-5.39,24.61.14,5.09.38,10.19.67,15.28.08,1.37.52,3.62,1.19,1.33.61-2.1-.16-5.39-.23-7.58-.35-10.67-.64-20.37,3.75-30.33.46-1.04.95-2.08,1.46-3.11.03-.02.06-.04.09-.06.02.01.04.03.06.04.03-.06.08-.13.13-.2.15-.15.27-.34.39-.55.39-.54.83-1.17.83-1.52,0,0,0,0,0,0,2.72-4.44,5.83-8.63,9.01-12.74-.02.03,3.45-4.7,2.91-2.08-.26,1.26-2.81,3.66-3.85,5-2.28,2.97-4.96,6.73-7.19,10.37-.3.17-.72,1.02-1.03,1.65-.17.32-.33.64-.48.92,7.89,2.61,14.03-2.64,18.22-8.75,0,0,0-.02.01-.02,1.27-1.69,2.58-3.36,4.21-4.7,2.72-2.23,5.63-2.62,8.84-3.72,8.75-2.99,12.46-14.32,13.64-22.73,1.33-9.49-5.18-24.04-16.56-23.1Z"/>
    <path class="cls-35" d="m344.21,76.74c-8.31,8.64-12.32,20.64-15.5,31.91-3.55,12.59-5.89,25.37-5.98,38.46-.06,8.6-.29,17.25.21,25.84.18,3.05.48,6.11.97,9.13.04.25,1.12,6.99,2.16,5.42.59-.89-1.11-6.99-1.24-8.01-.72-5.72-.89-11.48-.85-17.24.06-9.49-.22-18.92.74-28.37.14-1.41.26-2.89.59-4.27.36-1.47-.1-.83,1.06-1.41,1.13-.56,2.52-.48,3.69-1.19,4.63-2.81,7.01-10.03,8.85-14.77,2.11-5.42,3.39-11.19,4.42-16.9.75-4.19,1.29-8.35,1.59-12.59.1-1.34.1-2.74.36-4.05.07-.35.43-.98.41-1.3-.03-.66-.43-1.06-.46-1.61-.35.31-.69.63-1.02.96Z"/>
    <path class="cls-63" d="m298.92,191.92c0,14.3,11.59,25.89,25.89,25.89s25.89-11.59,25.89-25.89"/>
    <path class="cls-6" d="m326.88,192.01h-1.37c.09-1.72.22-3.43.51-5.13,1.1-6.49,4.53-16.02,12.05-17.08.28-.04,1.3-.05,2.54.03.59-.33,1.24-.53,1.93-.57,6.41-.47,13.56,4.7,16.65,10.07,2.49,4.34,2.07,10.03.53,14.64-1.03,3.08-3.28,7.48-7.03,7.53-4.69.05-4.92-5.75-5.01-9.14-.12-4.51-.69-8.43-4.24-11.51-.83-.72-1.73-1.35-2.57-2.05-1.31-1.1-2.76-2.24-2.92-4.06-.23-2.52,1.19-2.98,3.36-2.51.37.08,4.1,1.75,3.55.43-.17-.4-.78-.72-1.56-.96-2.01-.22-4.41-.47-5.1-.32-7.44,1.63-10.34,11.95-11.11,18.5-.08.71-.15,1.42-.21,2.13Z"/>
    <path class="cls-34" d="m192.55,308.54s-20.02,5.32-12.27,9.12c7.75,3.8,63.59,5.28,63.59,5.28,0,0,33.43.46,41.93-7.44,6.27-5.77,53.75-1.86,53.75-1.86,0,0,4.79,4.06,7.79,6,14.43,9.23,44.78,6.5,87.25,6.84,42.47.34,41.29-8.47,40.3-10.71-.99-2.28-11.24-10.75-35.44-10.45-24.2.3-155.58-6.04-246.89,3.23Z"/>
    <path class="cls-33" d="m387.83,179.23l-4.6,25.99,1.87.33,4.6-26-1.87-.33Z"/>
    <path class="cls-33" d="m387.48,178.5l-1.38,7.82,2.92.52,1.38-7.82-2.92-.52Z"/>
    <path class="cls-27" d="m381.98,208.84l-1.9-.15,2.2-26.28,1.14-1.67.76,1.82-2.2,26.28Z"/>
    <path class="cls-44" d="m379.32,210.2l-1.86.34-5.05-25.87.65-1.94,1.22,1.56,5.05,25.91Z"/>
    <path class="cls-14" d="m383.54,216.2h-8.17l-2.66-21.61h13.52l-2.7,21.61Z"/>
    <path class="cls-42" d="m386.61,216.2h-8.17l-1.18-21.61h12.04l-2.7,21.61Z"/>
    <path class="cls-40" d="m416.69,116.27l-5.39,3.34c-3.91,2.43-5.28,7.41-3.23,11.51.42.8.68,1.33.61,1.29-.19-.23,8.24-16.03,8.24-16.03"/>
    <path class="cls-45" d="m430.37,167.74h3.5c2.36,0,4.29-1.94,4.29-4.29v-13.79c0-2.35-1.94-4.29-4.29-4.29h-3.5c-2.35,0-4.29,1.94-4.29,4.29v13.79c0,2.35,1.94,4.29,4.29,4.29Z"/>
    <path class="cls-40" d="m408.83,132.38c-.11,1.06,4.82,2.85,4.86,3.95l-.8,2.24c6.08-2.2.72,1.14.72,1.18,1.79,5.36,1.18,8.32,6.31,10.33,2.58,1.03,5.39,1.48,8.32,1.25,3.95-.27,7.44.95,10.29-.42.61-.27,1.14-.65,1.67-1.18.99-.99,1.9-2.13,2.66-3.3.3-.46.57-.95.84-1.44,1.56-3,4.71-11.81,4.48-15.42-.72-10.18-10.48-17.02-21.73-16.26-.3.04-.57.04-.87.04-6.08.42-11.24,3.65-14.43,8.32-.15.27-.34.49-.49.76-.91,1.48-1.41,7.86-1.41,7.86-.19.68-.34,1.37-.42,2.09Z"/>
    <path class="cls-45" d="m409.29,135.64l.15,2.81.23,4.63.38,1.63c.04.72.42,4.56.53,5.28,1.29,6.57,5.58,7.98,12.27,8.77.19.04.42.04.61.08.72.08,1.44.08,2.17.04.72-.04,1.41-.11,2.09-.27,1.33-.23,2.62-.65,3.8-1.21,2.96-1.41,5.39-3.68,6.95-6.46,1.22-2.13,1.9-4.52,1.98-7.07v-1.78l-.08-1.33-.23-4.56v-.04l-.04-.84-.04-.65-.04-.61v-.15c-.08-1.06-.27-2.05-.61-3.04-.19-.68-.46-1.37-.76-1.97-.04-.11-.08-.19-.11-.3-.23-.53-.49-1.06-.8-1.52-1.14-1.9-2.66-3.49-4.44-4.75-.34-.27-.72-.49-1.1-.72-2.62-1.52-5.66-2.35-8.89-2.17-2.7.15-4.67.95-6.84,2.24-1.33.8-2.51,1.75-3.53,2.89-1.44,1.6-2.39,3.42-3.11,5.47-.04.11-.08.23-.11.34-.19.68-.34,1.37-.42,2.05-.04.99-.08,2.05,0,3.19Z"/>
    <path class="cls-40" d="m414.95,121.78c-3.27,9.04,5.36,8.32,5.77,12.46.04.46.23,1.14.34,4.56l.65,2.13c.19.65.8,1.14,1.48,1.14.87,0,1.56-.68,1.56-1.56v-.04l-.08-3.38,1.67,4.48c1.22,3.23,3.04,6.15,5.39,8.58,1.94,2.05,4.22,3.76,6.72,5.09,0,0,10.56-6.27,10.56-20.59,0-1.14-.08-2.32-.19-3.57-.11-1.1-.3-2.17-.57-3.11-4.37-17.78-26.21-11.7-28.3-10.94-2.28.8-5.01,4.75-5.01,4.75Z"/>
    <path class="cls-45" d="m407.43,145.21v.23c.04.99.87,1.75,2.96,1.71l-.3-7.63c-1.67,2.58-2.51,4.1-2.66,5.7Z"/>
    <path class="cls-40" d="m408.57,135.98h4.67c.53,0,.99-.46.99-.99s-.46-.99-.99-.99h-4.67c-.53,0-.99.46-.99.99s.46.99.99.99Z"/>
    <path class="cls-28" d="m411.19,139.48c.38,0,.72-.3.72-.72v-1.03c0-.38-.3-.72-.72-.72-.38,0-.72.3-.72.72v1.03c.04.42.34.72.72.72Z"/>
    <path class="cls-22" d="m431.74,150.08c1.94,2.05,4.22,3.76,6.72,5.09,0,0,10.56-6.27,10.56-20.59,0-1.14-.08-2.32-.19-3.57-.11-1.1-.3-2.16-.57-3.11-.46,2.74-1.71,6.84-4.82,11.93-4.82,7.79-9.99,9.8-11.7,10.26Z"/>
    <path class="cls-40" d="m410.43,149.51l.15,5.36c0,4.56,5.39,6.38,9.38,5.96l6.38-.68-.65-5.55-1.75-10.6,2.81-7.9-5.81,2.39c.46,6.27-4.06,11.36-10.37,11.05l-.15-.04Z"/>
    <path class="cls-45" d="m425.13,135.91c-.65,0-1.18.53-1.18,1.18l.04,3.99.04,3.46h1.67c2.28-.19,4.1-2.17,4.06-4.44,0-1.18-.49-2.2-1.29-2.96-.72-.68-1.67-1.1-2.77-1.14-.11,0-.23-.04-.34,0l-.23-.08Z"/>
    <path class="cls-32" d="m278.74,212.33l-3.27-6.04c-.38-.72-1.22-.99-1.9-.68l-.11.08c-.65.34-.91,1.18-.53,1.9l3.27,6.04c.38.72,1.22.99,1.9.68l.11-.08c.68-.38.91-1.22.53-1.9Z"/>
    <path class="cls-32" d="m273.15,214.53l.84,5.92c.11.95.72,1.71,1.37,1.63.65-.04,1.1-.87.99-1.82l-.84-5.92c-.11-.95-.72-1.71-1.37-1.63-.65.04-1.1.87-.99,1.82Z"/>
    <path class="cls-32" d="m270.49,216.09l.84,5.93c.11.95.72,1.71,1.37,1.63.65-.04,1.1-.87.99-1.82l-.84-5.93c-.11-.95-.72-1.71-1.37-1.63-.65.04-1.1.87-.99,1.82Z"/>
    <path class="cls-32" d="m320.9,214.53l-.84,5.93c-.11.95-.72,1.71-1.37,1.63-.65-.04-1.1-.87-.99-1.82l.84-5.93c.11-.95.72-1.71,1.37-1.63.65.04,1.1.87.99,1.82Z"/>
    <path class="cls-32" d="m323.56,216.09l-.84,5.93c-.11.95-.72,1.71-1.37,1.63-.65-.04-1.1-.87-.99-1.82l.84-5.93c.11-.95.72-1.71,1.37-1.63.64.04,1.1.87.99,1.82Z"/>
    <path class="cls-29" d="m224.73,131.46l-1.25-2.2c-1.71-3-4.79-4.94-8.2-5.17-3.46-.23-6.76,1.29-8.85,4.06-.15.23-.34.46-.49.65-2.92,4.25-4.1,11.2-1.94,21.38l4.1,25.94,13.64,1.94,4.33-41.14c.08-1.9-.38-3.8-1.33-5.47Z"/>
    <path class="cls-12" d="m271.75,206.63l6.34-1.82c.46-.15.72-.61.61-1.1-.15-.46-.61-.72-1.1-.61l-6.34,1.82c-.46.15-.72.61-.61,1.1.15.49.61.76,1.1.61Z"/>
    <path class="cls-12" d="m274.03,208.15l5.09-1.48c.46-.15.72-.61.61-1.1-.15-.46-.61-.72-1.1-.61l-5.09,1.48c-.46.15-.72.61-.61,1.1.15.46.65.72,1.1.61Z"/>
    <path class="cls-12" d="m273.12,210.58l6.04-1.75c.46-.15.72-.61.61-1.1-.15-.46-.61-.72-1.1-.61l-6.04,1.75c-.46.15-.72.61-.61,1.1.11.46.61.72,1.1.61Z"/>
    <path class="cls-12" d="m274.33,204.62c-.08,0-.87.11-1.75.19-1.48.15-2.93.68-4.18,1.48l-2.39,1.56s2.01,4.18,2.2,4.18c5.05.27,6.46-2.16,6.46-2.16l-.34-5.24Z"/>
    <path class="cls-12" d="m230.8,188.17s2.96,7.9,5.92,14.36c.84,1.79,1.67,3.46,2.43,4.82.23.38.46.76.68,1.14,3,4.63,6.99,7.22,12.65,6.53.04,0,16.67-2.85,16.67-2.85l-.95-5.77-17.17,1.48c-1.86.27-4.6-2.36-5.81-4.1-.08-.15-.19-.27-.27-.38-.57-.99-1.18-2.16-1.82-3.49-3.87-8.05-8.74-21.23-8.74-21.23l-3.61,9.5Z"/>
    <path class="cls-58" d="m232.97,173.32c.34.53,8.24,15.99,8.24,15.99l-6.19,5.66-2.05-21.65Z"/>
    <path class="cls-11" d="m235.78,251.19l-37.22,3.68-13.67-69.32,21.04-.11c9.27-.04,17.28,6.46,19.18,15.5l10.67,50.25Z"/>
    <path class="cls-13" d="m188.53,251.64l-8.2-60.66c-.38-2.7,1.56-5.2,4.25-5.58,2.7-.38,5.2,1.56,5.58,4.25l8.2,60.66c.38,2.7-1.56,5.2-4.25,5.58-2.7.34-5.2-1.56-5.58-4.25Z"/>
    <path class="cls-4" d="m222.33,259.96h-5.77v34.03h5.77v-34.03Z"/>
    <path class="cls-23" d="m222.33,261.94v7.67l-5.77-2.24v-5.2c1.44-.04,4.25-.19,5.77-.23Z"/>
    <path class="cls-4" d="m232.82,262.7h-25.79c-1.41,0-2.58-1.18-2.58-2.58s1.18-2.58,2.58-2.58h25.79c1.41,0,2.58,1.18,2.58,2.58s-1.14,2.58-2.58,2.58Z"/>
    <path class="cls-11" d="m245.92,259.62h-30.58c-3.27,0-5.96-2.7-5.96-5.96v-.95c0-3.27,2.7-5.96,5.96-5.96h30.58c3.27,0,5.96,2.7,5.96,5.96v.95c0,3.27-2.7,5.96-5.96,5.96Z"/>
    <path class="cls-13" d="m219.41,259.77h-23.7c-3.53,0-6.46-2.89-6.46-6.46s2.89-6.46,6.46-6.46h23.7c3.53,0,6.46,2.89,6.46,6.46s-2.92,6.46-6.46,6.46Z"/>
    <path class="cls-23" d="m243.91,305.32h-3.61c0-4.29-3.49-7.82-7.82-7.82h-26.29c-4.29,0-7.82,3.49-7.82,7.82h-3.61c0-6.31,5.13-11.43,11.43-11.43h26.29c6.31,0,11.43,5.13,11.43,11.43Z"/>
    <path class="cls-23" d="m223.66,288.49h-8.43v5.51h8.43v-5.51Z"/>
    <path class="cls-23" d="m199.43,308.81c0,1.67-1.33,3-3,3s-3-1.33-3-3,1.33-3,3-3,3,1.33,3,3Z"/>
    <path class="cls-4" d="m200.76,308.54h-8.2v-1.21c0-2.01,1.63-3.65,3.65-3.65h.91c2.01,0,3.65,1.63,3.65,3.65v1.21Z"/>
    <path class="cls-23" d="m245.28,308.81c0,1.67-1.33,3-3,3s-3-1.33-3-3,1.33-3,3-3,3,1.33,3,3Z"/>
    <path class="cls-4" d="m246.6,308.54h-8.2v-1.21c0-2.01,1.63-3.65,3.65-3.65h.91c2.01,0,3.65,1.63,3.65,3.65v1.21Z"/>
    <path class="cls-23" d="m221.99,294.98h-4.79v10.83h4.79v-10.83Z"/>
    <path class="cls-23" d="m222.67,308.81c0,1.67-1.33,3-3,3s-3-1.33-3-3,1.33-3,3-3,3,1.33,3,3Z"/>
    <path class="cls-4" d="m224,308.54h-8.2v-1.21c0-2.01,1.63-3.65,3.65-3.65h.91c2.01,0,3.65,1.63,3.65,3.65v1.21Z"/>
    <path class="cls-44" d="m230.8,255.02l-.23-.08c.08.15.23.08.23.08Z"/>
    <path class="cls-44" d="m230.8,255.02l-.23-.08c.08.15.23.08.23.08Z"/>
    <path class="cls-47" d="m208.77,225.7l.27,11.05c.15,6.08,2.58,11.13,10.29,11.36l20.09,2.58v-12.12l-2.58-8.24-28.07-4.63Z"/>
    <path class="cls-8" d="m254.81,311.16l20.97.57c1.25.04,2.28-.99,2.32-2.24.04-.99-.57-1.86-1.44-2.24l-10.26-3.99-11.36-.04-.23,7.94Z"/>
    <path class="cls-23" d="m276.27,312.34l-21.31-.42.04-1.56,22.75.46v.11c-.04.8-.68,1.41-1.48,1.41Z"/>
    <path class="cls-71" d="m265.78,306.42l2.54-2.66"/>
    <path class="cls-71" d="m267.61,307.21l2.54-2.62"/>
    <path class="cls-71" d="m269.36,308.32l2.89-3"/>
    <path class="cls-47" d="m254.85,304.33c1.25-20.89,2.05-45.24.42-49.15-1.67-2.43-12.46-4.98-22.71-7.79l2.17-14.09c8.24,1.29,28.03,7.79,32.29,15.12,1.79,3.08,2.39,14.17,1.56,35.48-.46,11.17-.99,19.9-.99,19.9l-12.72.53Z"/>
    <path class="cls-9" d="m239.35,311.43l20.97.57c1.25.04,2.28-.99,2.32-2.24.04-.99-.57-1.86-1.44-2.24l-10.26-3.99-11.36-.04-.23,7.94Z"/>
    <path class="cls-23" d="m260.81,312.61l-21.31-.42.04-1.56,22.75.46v.11c-.04.8-.68,1.41-1.48,1.41Z"/>
    <path class="cls-71" d="m250.33,306.68l2.54-2.66"/>
    <path class="cls-71" d="m252.15,307.48l2.54-2.62"/>
    <path class="cls-71" d="m253.9,308.54l2.89-3"/>
    <path class="cls-64" d="m239.39,304.59c1.25-20.89,2.05-45.24.42-49.15-1.52-1.52-13.6-4.44-23.59-7.33-3.8-1.1-6.57-4.33-7.1-8.24l-.53-6.42,11.02-.53c8.24,1.29,27.69,8.39,31.94,15.73,1.79,3.08,2.39,14.17,1.56,35.48-.46,11.17-.99,19.9-.99,19.9l-12.72.57Z"/>
    <path class="cls-58" d="m237.75,231.89l-20.7.87-8.66.38h-.04l-2.54-42.54c-.27-5.77.34-10.1,1.41-13.33,3.11-9.5,10.26-9.42,10.94-9.42l7.48.08c6.34,0,11.28,10.79,11.93,21.84l.11,29.02.04,10.14.04,2.96Z"/>
    <path class="cls-55" d="m237.75,231.89l-20.7.87-8.66.38h-.04l-2.54-42.54c-.27-5.77.34-10.1,1.41-13.33l4.03,6.15,7.25,23.85,12,5.85,7.22,5.66.04,10.14v2.96Z"/>
    <path class="cls-23" d="m430.14,245.38h-31.41v6.27h31.41v-6.27Z"/>
    <path class="cls-20" d="m404.88,224.07h-7.06v87.29h7.06v-87.29Z"/>
    <path class="cls-21" d="m431.2,224.07h-7.06v87.29h7.06v-87.29Z"/>
    <path class="cls-20" d="m254.54,245.91h-29.85v6.27h29.85v-6.27Z"/>
    <path class="cls-20" d="m231.14,224.14h-7.06v87.29h7.06v-87.29Z"/>
    <path class="cls-21" d="m256.82,224.07h-7.07v87.29h7.07v-87.29Z"/>
    <path class="cls-29" d="m215.34,224.56h98.61v-5.32c0-1.44-1.14-2.58-2.58-2.58h-93.44c-1.44,0-2.58,1.14-2.58,2.58v5.32Z"/>
    <path class="cls-48" d="m439.52,219.47v5.09h-195.43v-5.09c0-1.56,1.25-2.77,2.81-2.77h189.84c1.52-.04,2.77,1.22,2.77,2.77Z"/>
    <path class="cls-29" d="m419.39,216.66v7.9h-53.37c-.95-2.05-2.47-5.43-3.53-7.9h56.9Z"/>
    <path class="cls-2" d="m371.72,216.93h-40.11c-.23-.3-.42-.68-.49-1.06l-8.96-32.44c-.42-1.56.72-3.08,2.32-3.08h35.32c1.1,0,2.05.72,2.32,1.79l9.61,34.79Z"/>
    <path class="cls-30" d="m335.98,217.23h37.68l-10.03-36.24c-.3-1.06-1.25-1.79-2.32-1.79h-35.29c-1.6,0-2.77,1.52-2.32,3.08l8.96,32.4c.38,1.48,1.75,2.54,3.3,2.54Z"/>
    <path class="cls-53" d="m325.65,183.69l7.33,26.4,1.56,5.55h37.38l-1.52-5.55-7.67-27.61c-.27-.99-1.14-1.63-2.17-1.63h-32.7c-1.52,0-2.62,1.44-2.2,2.85Z"/>
    <path class="cls-41" d="m347.64,184.45h11.51l-.27-.8h-11.51l.27.8Z"/>
    <path class="cls-66" d="m337.23,184.45h5.43l-.27-.8h-5.43l.27.8Z"/>
    <path class="cls-24" d="m329.37,184.45h5.43l-.27-.8h-5.43l.27.8Z"/>
    <path class="cls-5" d="m335.45,184.45h1.29l-.27-.8h-1.29l.27.8Z"/>
    <path class="cls-24" d="m343.31,184.45h3.8l-.27-.8h-3.8l.27.8Z"/>
    <path class="cls-2" d="m355.66,198.24h-5.43l-.27-.8h5.43l.27.8Z"/>
    <path class="cls-36" d="m363.52,198.24h-5.43l-.27-.8h5.43l.27.8Z"/>
    <path class="cls-5" d="m357.44,198.24h-1.29l-.27-.8h1.29l.27.8Z"/>
    <path class="cls-66" d="m355.92,187.91h4.33l-.27-.8h-4.29l.23.8Z"/>
    <path class="cls-5" d="m345.51,187.91h1.82l-.23-.8h-1.86l.27.8Z"/>
    <path class="cls-66" d="m330.43,187.91h9.04l-.23-.8h-9.04l.23.8Z"/>
    <path class="cls-5" d="m340.12,187.91h4.9l-.27-.8h-4.86l.23.8Z"/>
    <path class="cls-5" d="m347.98,187.91h7.41l-.27-.8h-7.41l.27.8Z"/>
    <path class="cls-15" d="m362.49,208.61h4.29l-.23-.8h-4.33l.27.8Z"/>
    <path class="cls-2" d="m357.02,191.36h4.33l-.27-.84h-4.33l.27.84Z"/>
    <path class="cls-2" d="m350,191.36h4.29l-.23-.84h-4.33l.27.84Z"/>
    <path class="cls-5" d="m332.75,191.36h7.41l-.27-.84h-7.41l.27.84Z"/>
    <path class="cls-5" d="m362.42,194.82h-7.41l-.27-.84h7.44l.23.84Z"/>
    <path class="cls-30" d="m332.98,210.13l1.52,5.51h37.38l-1.52-5.51h-37.38Z"/>
    <path class="cls-50" d="m353.11,217.31h45.88c1.06,0,1.94-.87,1.94-1.94s-.87-1.94-1.94-1.94h-45.88c-1.06,0-1.94.87-1.94,1.94s.87,1.94,1.94,1.94Z"/>
    <path class="cls-2" d="m335.75,217.27h27.23c1.1,0,2.01-.91,2.01-2.01s-.91-2.01-2.01-2.01h-27.23c-1.1,0-2.01.91-2.01,2.01.04,1.14.91,2.01,2.01,2.01Z"/>
    <path class="cls-28" d="m349.08,214.57h-3.8v1.14h3.8v-1.14Z"/>
    <path class="cls-28" d="m352.96,214.57h-2.74v1.14h2.74v-1.14Z"/>
    <path class="cls-13" d="m294.5,206.67v10.37h8.66v-10.37c0-.46-.38-.84-.84-.84h-7.03c-.42,0-.8.38-.8.84Z"/>
    <path class="cls-13" d="m303.08,215.29c.11-.08,2.77-1.63,3-4.37.08-1.03-.3-1.67-.65-2.05-.95-.99-2.54-.91-2.7-.91l.08,1.25c.3,0,1.25.04,1.75.53.23.27.34.61.3,1.06-.19,2.09-2.35,3.34-2.39,3.38l.61,1.1Z"/>
    <path class="cls-13" d="m298.56,217.08h4.63v-10.37c0-.46-.38-.84-.84-.84h-.27c0,.53-.15,4.67-1.33,7.67-1.03,2.58-1.94,3.34-2.2,3.53Z"/>
    <path class="cls-49" d="m305.44,208.87c-.68-.68-1.67-.87-2.24-.91v-1.29c0-.46-.38-.84-.84-.84h-.27c0,.53-.15,4.67-1.33,7.67-1.03,2.58-1.9,3.38-2.2,3.53h4.63v-1.86c.53-.3,2.7-1.82,2.92-4.29.08-.99-.34-1.63-.68-2.01Zm-.61,1.94c-.11,1.29-.99,2.28-1.63,2.81v-4.41c.42.04,1.03.19,1.33.53.27.27.34.61.3,1.06Z"/>
    <path class="cls-2" d="m304.07,217.42h-31.03c-2.01,0-3.38-2.13-2.51-3.95l10.83-23.09c.95-2.01,2.96-3.31,5.2-3.31h28.6c1.48,0,2.47,1.56,1.82,2.89l-12.91,27.46Z"/>
    <path class="cls-61" d="m273.15,217.5h-22.14c-.91,0-1.63-.72-1.63-1.63s.72-1.63,1.63-1.63h22.14c.91,0,1.63.72,1.63,1.63s-.76,1.63-1.63,1.63Z"/>
    <path class="cls-31" d="m265.18,215.33h-3.15v.95h3.15v-.95Z"/>
    <path class="cls-31" d="m261.08,215.33h-2.28v.95h2.28v-.95Z"/>
    <path class="cls-24" d="m303.62,217.42h-31.11c-1.1,0-1.86-1.18-1.37-2.17l11.66-24.88c.95-2.01,2.96-3.31,5.2-3.31h28.6c1.48,0,2.47,1.56,1.82,2.89l-12.08,25.75c-.53,1.03-1.6,1.71-2.74,1.71Z"/>
    <path class="cls-31" d="m296.82,204.01c-.72,1.71-2.13,2.77-3.08,2.39-.95-.42-1.14-2.13-.42-3.87.72-1.71,2.13-2.77,3.08-2.39.95.42,1.14,2.13.42,3.87Z"/>
    <path class="cls-12" d="m247.14,211.27l6.53-1.03c.49-.08.8-.53.72-.99-.08-.49-.53-.8-.99-.72l-6.53,1.03c-.49.08-.8.53-.72.99.08.46.53.8.99.72Z"/>
    <path class="cls-12" d="m249.22,213.01l5.24-.8c.49-.08.8-.53.72-.99-.08-.49-.53-.8-.99-.72l-5.24.8c-.49.08-.8.53-.72.99.04.49.49.8.99.72Z"/>
    <path class="cls-12" d="m247.97,215.33l6.23-.95c.49-.08.8-.53.72-.99-.08-.49-.53-.8-.99-.72l-6.23.95c-.49.08-.8.53-.72.99.08.46.53.8.99.72Z"/>
    <path class="cls-12" d="m249.98,209.56c-.08,0-.87,0-1.75-.04-1.48-.04-3,.3-4.33.95l-2.58,1.25s1.44,4.41,1.67,4.44c4.98.91,6.68-1.33,6.68-1.33l.3-5.28Z"/>
    <path class="cls-12" d="m208.88,187.68s1.94,8.24,4.06,14.97c.61,1.86,1.22,3.65,1.79,5.09.19.42.34.84.53,1.21,2.35,4.98,6,8.05,11.7,8.09.04,0,16.87-.68,16.87-.68l-.23-5.85-17.24-.72c-1.86,0-4.29-2.92-5.24-4.82-.08-.15-.15-.3-.19-.42-.42-1.03-.91-2.32-1.37-3.72-2.81-8.47-5.96-22.18-5.96-22.18l-4.71,9.04Z"/>
    <path class="cls-58" d="m215.12,173.47l3.8,16.83-10.83,3.27s-.61-2.13-1.06-4.6c-.46-2.47-.99-8.77.23-11.7,1.1-2.74,4.71-3.23,7.86-3.8Z"/>
    <path class="cls-12" d="m372.82,305.32l-.87,4.37,11.09-.19-.38-3.11-9.84-1.06Z"/>
    <path class="cls-43" d="m416.35,316.82l-22.79-.46c-1.37-.04-2.43-1.14-2.39-2.51.04-1.06.72-1.98,1.71-2.28l11.36-3.68,12.31.57-.19,8.36Z"/>
    <path class="cls-23" d="m393.11,316.98l23.06.65.04-1.67-24.73-.68c0,.91.72,1.67,1.63,1.71Z"/>
    <path class="cls-72" d="m404.39,311.2l-2.58-2.93"/>
    <path class="cls-72" d="m402.41,311.96l-2.58-2.93"/>
    <path class="cls-72" d="m400.51,313.03l-2.92-3.34"/>
    <path class="cls-17" d="m417.41,308.96c-1.33-22.22-.95-42.77.76-46.95,1.79-2.58,15.61-8.17,29.44-8.77l-6.46-14.13c-18.16.91-31.11,7.71-35.67,15.5-1.9,3.27-3.57,9.91-2.7,32.59.46,11.89,1.06,21.16,1.06,21.16l13.56.61Z"/>
    <path class="cls-64" d="m371.42,306.38c0-1.06,6.53-49.23,9.61-53.25,4.67-6.15,21.57-11.93,39.88-14.02l6.76,15.92c-13.83.61-31.45,5.93-33.88,7.45-1.75,4.18-10.94,45.5-10.94,45.5l-10.45-.65s-.99.11-.99-.95Z"/>
    <path class="cls-64" d="m416.69,243.17c0,2.51.87,4.79,2.35,6.53,1.9,2.28,4.75,3.72,7.94,3.72h17.28c.53,0,1.03-.04,1.52-.11,1.25-.19,2.47-.61,3.53-1.21.19-.11.38-.23.57-.34,2.81-1.82,4.67-5.01,4.67-8.62l-.3-5.47-37.26-.3-.3,5.81Z"/>
    <path class="cls-12" d="m404.8,213.85l-8.93-1.44c-.65-.11-1.1-.72-.99-1.37.11-.64.72-1.1,1.37-.99l8.93,1.44c.65.11,1.1.72.99,1.37-.11.65-.72,1.1-1.37.99Z"/>
    <path class="cls-12" d="m401.95,216.28l-7.14-1.14c-.65-.11-1.1-.72-.99-1.37.11-.65.72-1.1,1.37-.99l7.14,1.14c.65.11,1.1.72.99,1.37-.11.65-.72,1.1-1.37.99Z"/>
    <path class="cls-12" d="m403.63,219.4l-8.47-1.37c-.65-.11-1.1-.72-.99-1.37.11-.65.72-1.1,1.37-.99l8.47,1.37c.64.11,1.1.72.99,1.37-.11.64-.72,1.1-1.37.99Z"/>
    <path class="cls-12" d="m400.93,211.57c.11,0,1.18,0,2.35-.04,2.05-.04,4.06.42,5.89,1.33l3.53,1.75s-2.01,5.96-2.28,6.04c-6.76,1.22-9.12-1.86-9.12-1.86l-.38-7.22Z"/>
    <path class="cls-31" d="m409.17,211.57h-3v9.76h3v-9.76Z"/>
    <path class="cls-19" d="m428.92,222.4c7.1,0,13.6-4.14,16.56-10.6l.15-.3,9.27-28.34-11.43-3.76-9.04,27.61c-1.06,2.05-3.23,3.38-5.58,3.34l-19.71-.19-.11,12.04,19.71.19h.19Z"/>
    <path class="cls-12" d="m364.73,209.82c.72-1.33,1.86-2.39,3.19-3.04h.04c1.82-.91,3.87-1.33,5.93-1.29l3.91.08s.8,9.27.72,9c-.11-.57-3.76-1.1-13.71-1.1-.95,0-1.56-.99-1.1-1.82l1.03-1.82Z"/>
    <path class="cls-31" d="m379.85,205.27h-3.72v10.03h3.72v-10.03Z"/>
    <path class="cls-25" d="m455.78,246.17s-3.87.42-9.08.65c-.95.04-1.94.08-2.96.11-6.04.15-13.07-.04-18.08-1.37-3.04-.8-5.36-1.63-7.06-2.35-.72-.3-1.33-.61-1.82-.87-1.9-1.03-2.66-1.75-2.74-1.86l-.3-32.17-.23-25.26c0-9.95,8.09-18.04,18.04-18.04h6.08c1.06,0,2.13.08,3.11.27,1.06.19,2.09.46,3.04.84,6.91,2.54,11.85,9.15,11.85,16.94l.15,63.13Z"/>
    <path class="cls-26" d="m455.6,245.8s-3.87.42-9.08.65c-.95.04-1.94.08-2.96.11-3.23.08-6.72.08-10.07-.19l-.15-67.99c0-5.17-1.9-9.88-5.09-13.48.99-.19,2.01-.27,3.08-.27h6.08c1.06,0,2.13.08,3.11.27,1.06.19,2.09.46,3.04.84,6.91,2.54,11.85,9.15,11.85,16.94l.19,63.13Z"/>
    <path class="cls-39" d="m425.24,183.31c-.72,3.08-4.94,22.07-6.87,30.84l-.11-14.93s-.65,2.54-2.43,5.77l-.91-7.82s11.24-17.89,10.33-13.86Z"/>
    <path class="cls-4" d="m441.61,265.96h-6.08v33.84h6.08v-33.84Z"/>
    <path class="cls-23" d="m435.53,267.9v7.64l6.08-2.2v-5.17c-1.52-.08-4.44-.19-6.08-.27Z"/>
    <path class="cls-4" d="m424.14,268.7h27.88c1.29,0,2.36-1.06,2.36-2.36v-.38c0-1.29-1.06-2.36-2.36-2.36h-27.88c-1.29,0-2.36,1.06-2.36,2.36v.38c-.04,1.29,1.03,2.36,2.36,2.36Z"/>
    <path class="cls-23" d="m413.01,312.3h3.8c0-4.29,3.68-7.79,8.24-7.79h27.73c4.56,0,8.24,3.49,8.24,7.79h3.8c0-6.27-5.39-11.36-12.04-11.36h-27.73c-6.61-.04-12.04,5.09-12.04,11.36Z"/>
    <path class="cls-23" d="m443.05,294.3h-8.89v7.41h8.89v-7.41Z"/>
    <path class="cls-23" d="m459.95,315.76c0,1.63,1.41,2.96,3.15,2.96s3.15-1.33,3.15-2.96-1.4-2.96-3.15-2.96-3.15,1.33-3.15,2.96Z"/>
    <path class="cls-4" d="m458.55,315.49h8.66v-1.1c0-2.05-1.67-3.72-3.72-3.72h-1.18c-2.05,0-3.72,1.67-3.72,3.72v1.1h-.04Z"/>
    <path class="cls-23" d="m411.56,315.76c0,1.63,1.41,2.96,3.15,2.96s3.15-1.33,3.15-2.96-1.41-2.96-3.15-2.96-3.15,1.33-3.15,2.96Z"/>
    <path class="cls-4" d="m410.2,315.49h8.66v-1.1c0-2.05-1.67-3.72-3.72-3.72h-1.18c-2.05,0-3.72,1.67-3.72,3.72v1.1h-.04Z"/>
    <path class="cls-23" d="m441.19,302.05h-5.05v10.75h5.05v-10.75Z"/>
    <path class="cls-23" d="m435.42,315.76c0,1.63,1.41,2.96,3.15,2.96s3.15-1.33,3.15-2.96-1.41-2.96-3.15-2.96-3.15,1.33-3.15,2.96Z"/>
    <path class="cls-4" d="m434.01,315.49h8.66v-1.1c0-2.05-1.67-3.72-3.72-3.72h-1.18c-2.05,0-3.72,1.67-3.72,3.72v1.1h-.04Z"/>
    <path class="cls-11" d="m487.04,200.21l-8.17,58.84c-.49,3.57-3.49,6.27-7.1,6.38l-18.57.34,11.36-73.99h15.12c4.52,0,7.98,3.95,7.37,8.43Z"/>
    <path class="cls-25" d="m398.27,216.93c7.1,0,13.6-4.14,16.56-10.6l13.37-28.94-10.94-5.05-13.37,28.94c-1.03,2.2-3.23,3.65-5.7,3.61l-19.71-.19-.11,12.04,19.71.19h.19Z"/>
    <path class="cls-13" d="m406.4,265.77h48.54c3.27,0,5.92-2.66,5.92-5.93v-.95c0-3.27-2.66-5.92-5.92-5.92h-48.54c-3.27,0-5.93,2.66-5.93,5.92v.95c0,3.27,2.7,5.93,5.93,5.93Z"/>
    <path class="cls-31" d="m443.78,160.9h-18.61v5.2h18.61v-5.2Z"/>
    <path class="cls-13" d="m461.66,257.68l8.62-60.36c.38-2.7-1.63-5.2-4.48-5.55-2.85-.38-5.51,1.56-5.89,4.22l-8.62,60.36c-.38,2.7,1.63,5.2,4.48,5.55,2.85.38,4.33,2.39,5.89-4.22Z"/>
    <path class="cls-39" d="m418.59,243.21c-.72-.3-1.33-.61-1.82-.87-1.9-1.03-2.66-1.75-2.74-1.86l-.3-32.17c3.42-4.63,4.56-9.12,4.56-9.12l.3,44.02Z"/>
    <path class="cls-54" d="m383.54,317.01l-22.79.19c-1.37,0-2.47-1.1-2.47-2.43,0-1.06.65-1.97,1.63-2.32l11.24-4.03,12.31.19.08,8.39Z"/>
    <path class="cls-23" d="m360.29,317.81h23.06v-1.67h-24.73c.04.95.76,1.67,1.67,1.67Z"/>
    <path class="cls-72" d="m371.42,311.7l-2.66-2.85"/>
    <path class="cls-72" d="m369.44,312.53l-2.66-2.85"/>
    <path class="cls-72" d="m367.58,313.63l-3-3.23"/>
    <path class="cls-23" d="m323.86,211.84h-18.12v5.39h18.12v-5.39Z"/>
    <path class="cls-33" d="m318.77,211.84h-18.12v5.39h18.12v-5.39Z"/>
    <path class="cls-69" d="m307.87,215.29c-1.79.27-3.11,1.78-3.15,3.61l-.04,2.32c-.08,3.53-2.92,6.38-6.46,6.42l-6.04.08c-2.73.04-5.05-2.09-5.24-4.82l-.04-.65c-.19-2.92-2.47-5.24-5.39-5.51l-16.14-.04c-.53,0-1.03-.23-1.37-.64l-.19-.27"/>
    <path class="cls-69" d="m311.14,215.79c-1.6.08-2.81,1.44-2.77,3.04l.49,17.21c.11,4.56-3.61,8.28-8.17,8.13-4.22-.11-7.6-3.53-7.67-7.75l-.38-16.71c-.04-1.56-1.29-2.85-2.85-2.89l-7.71-.04"/>
    <path class="cls-31" d="m313.76,216.58h-3.49c-.38,0-.72-.3-.72-.72,0-.38.3-.72.72-.72h3.49c.38,0,.72.3.72.72,0,.38-.3.72-.72.72Z"/>
    <path class="cls-31" d="m308.06,216.24h-3.5c-.38,0-.72-.3-.72-.72,0-.38.3-.72.72-.72h3.5c.38,0,.72.3.72.72,0,.38-.34.72-.72.72Z"/>
    <path class="cls-7" d="m222.56,171.42h-2.09c-1.86,0-3.38-1.52-3.38-3.38v-12.19c0-1.86,1.52-3.38,3.38-3.38h2.09c1.86,0,3.38,1.52,3.38,3.38v12.19c0,1.82-1.52,3.38-3.38,3.38Z"/>
    <path class="cls-31" d="m221.69,126.22l-1.33-1.44s-6.57,1.06-9.27,6.8l.95,1.41,9.65-6.76Z"/>
    <path class="cls-14" d="m242.65,142.52c0,.23-.04.49-.08.72-.15,1.14-.38,2.28-.76,3.3-1.52,4.52-17.09-9.08-21.46-7.33-2.17.87-3.53,19.22-3.87,18.92-7.41-6.69-7.03-14.93-6.8-18,.61-8.66,8.66-15.08,17.24-14.85.23,0,.49.04.72.04,5.43.38,10.03,3.38,12.65,7.71.76,1.25,1.37,2.66,1.79,4.1.53,1.71.72,3.53.57,5.39Z"/>
    <path class="cls-52" d="m221.19,145.82c0,.34-.11.68-.23.99-.15.38-.42.76-.72,1.03-.53.49-1.29.84-2.09.8l-1.71-.08-1.33-.08.19-3.91.04-.72.04-.57.04-.49v-.11l3.04.15c.76.04,1.44.38,1.94.87.3.3.53.68.65,1.1.11.34.15.68.15,1.03Z"/>
    <path class="cls-12" d="m215.04,150.68v.61c.08,1.9.57,3.68,1.37,5.32.04.08.08.15.11.23,1.33,2.51,3.46,4.56,6.08,5.81,1.03.49,2.09.84,3.23,1.03.42.08.84.15,1.25.19.15,0,.34.04.53.04.61.04,1.25.04,1.86-.04.15,0,.34-.04.53-.04,5.66-.68,10.29-4.98,11.36-10.56.11-.61.19-1.21.23-1.82l.04-.95.3-6.31c.04-.95.04-1.86-.08-2.77-.08-.68-.23-1.37-.46-2.05-.57-1.75-1.41-3.3-2.62-4.67-2.28-2.51-5.58-4.18-9.23-4.33-2.74-.15-5.36.57-7.56,1.86-.3.19-.65.38-.95.61-1.52,1.06-2.81,2.43-3.76,4.03-.27.42-.49.87-.68,1.29-.04.08-.08.15-.11.23-.23.53-.46,1.1-.65,1.67-.27.84-.46,1.67-.49,2.58v.11l-.04.49-.04.57-.04.72v.15l-.04.34-.15,3.42-.08,1.14v.49c.08.27.08.46.08.61Z"/>
    <path class="cls-52" d="m213.06,147.46c-.08,1.25.8,2.39,1.97,2.7.11.04.23.04.34.08h.19l.8.04.08-1.71v-.38l.15-3.08-.8-.04h-.23c-.11,0-.19,0-.3.04-.53.08-.99.27-1.37.61-.46.46-.8,1.03-.84,1.75Z"/>
    <path class="cls-12" d="m215.04,150.15v1.14h.08c.08,1.9.53,3.68,1.33,5.28.04.08.08.15.11.23,1.33,2.58,3.49,4.71,6.15,5.96,2.28,1.37,2.43,1.18,2.43,1.18,0,0,1.1-.15.95-.23-.91-.61-3.31-2.89-4.82-6.84-.8-2.17-.99-5.7-.99-8.85v-.23c0-1.44.08-2.81.15-3.91v-.08c.08-1.52.19-2.51.19-2.51-1.03-2.24-2.85-2.05-4.67-1.06-.23.76-.42,1.6-.49,2.43v.27l-.04.49-.04.57-.04.72h-.08l-.04.34c-.53.08-.99.27-1.37.61-.49.46-.84,1.03-.87,1.75,0,1.25.87,2.43,2.05,2.73Z"/>
    <path class="cls-14" d="m237.68,137.12c.19,1.14-.19,2.24-.95,2.96-.61.61-1.44.99-2.35.99,0,0-13.18.99-15.08,5.05l-1.41,2.58c-.19.38-.61.61-1.06.57h-.04c-.53-.04-.95-.46-1.03-.95-.34-2.54-1.79-9.84-1.79-10.41,0-.91.87-2.01,1.48-2.62.61-.61,1.44-.99,2.35-.99h16.37c1.71.04,3.19,1.18,3.49,2.81Z"/>
    <path class="cls-13" d="m231.79,156.46h2.09c.27,0,.53-.23.53-.53,0-.27-.23-.53-.53-.53h-2.09c-.27,0-.53.23-.53.53.04.3.27.53.53.53Z"/>
    <path class="cls-13" d="m231.87,157.37h1.48c.38,0,.68-.3.68-.68s-.3-.68-.68-.68h-1.48c-.38,0-.68.3-.68.68s.3.68.68.68Z"/>
    <path class="cls-12" d="m235.06,152.43s-.15.95-1.52.91c-1.18-.04-1.29-.87-1.29-.87l2.81-.04Z"/>
    <path class="cls-4" d="m213.22,150.91c0,.8.65,1.41,1.41,1.41.8,0,1.41-.65,1.41-1.41,0-.8-.65-1.41-1.41-1.41s-1.41.61-1.41,1.41Z"/>
    <path class="cls-14" d="m236.77,136.55s3.99-.15,5.62,4.6c0,0,.91-4.82-5.74-9.84-6.65-4.98-18.38-.84-19.33,1.29-.95,2.13-.84,3.8-.84,3.8l20.28.15Z"/>
    <path class="cls-68" d="m230.73,144.99s-2.24-1.06-4.63.34"/>
    <path class="cls-68" d="m240.11,144.68s-2.24-1.06-4.63.34"/>
    <path class="cls-23" d="m228.56,149.24c-.34,0-.61-.27-.61-.61v-1.1c0-.34.27-.61.61-.61s.61.27.61.61v1.1c-.04.34-.3.61-.61.61Z"/>
    <path class="cls-23" d="m237.72,149.24c-.34,0-.61-.27-.61-.61v-1.1c0-.34.27-.61.61-.61s.61.27.61.61v1.1c0,.34-.27.61-.61.61Z"/>
    <path class="cls-34" d="m130.5,310.5l-2.44,4.03s-1.33,3.79-8.08,3.88c-12.1.16-51.93.67-64.7,0,0,0-9.46-.44-5.61-3.88,3.83-3.44,5.72-4.03,5.72-4.03h75.11Z"/>
    <g class="cls-67">
      <path class="cls-60" d="m104.4,65.28c2.46-3.51,7.03-12.42,10.49-13.68,2.23-.81,1.58,7.55,1.61,9.14.11,6.16-.49,12.29-1.23,18.4-1.34,11.03-5.7,20.84-11.69,30.23-3.08,4.83-6.7,9.71-11.7,12.73-2.3,1.39-5.08,1.62-7.35,2.81-2.65,1.39-1.21.27-2.4,3.03-1.66,3.83-2.19,8.78-2.96,12.87-3.52,18.78-12.06,118.07-10.58,137.17.13,1.69-2.23,2.1-2.35.03-.63-10.96,4.79-86.87,7.53-111.69,2.74-24.82,5.5-46.75,8.28-55.34,3.37-10.42,9.45-22.95,14.51-32.66,2.35-4.51,4.91-8.87,7.84-13.04Z"/>
      <path class="cls-38" d="m122.67,187.03c6.41-4.7,13.34,4.17,7.54,8.88-3.2,2.6-6.55,1.67-8.44-.49-1.22,1.49-2.37,3.05-3.47,4.37-3.35,4.02-6.53,8.13-9.56,12.34-6.29,8.74-11.69,17.98-17.33,27.04-5.57,8.95-11.09,17.94-16.13,27.12-4.27,7.77-9.97,16.92-11.43,25.44,2.22-18.07,10.64-35.45,20.68-51.38,9.95-15.8,21.37-33.06,36.78-45.53-1.57-2.31-1.61-5.6,1.37-7.78Z"/>
      <path class="cls-60" d="m1.12,142.95c3.58.7,9.44,8.81,12.4,11.9,3.51,3.67,6.7,7.58,9.7,11.69,6.46,8.83,12.25,18.21,17.16,27.99,8.02,15.95,14.44,32.33,19.1,49.7,2.85,10.63,4.7,21.65,5.79,32.6.21,2.06,2.37,17.98-.75,18.41-2.8.39-1.94-12.08-2.07-13.78-1.53-19.14-6.11-37.75-12.48-55.79-1.39-3.93-2.68-8.74-4.9-12.28-1.6-2.55-.01-1.66-2.82-2.62-2.41-.83-5.16-.63-7.63-1.64-5.37-2.2-9.66-6.47-13.43-10.77-7.32-8.35-13.12-17.39-16.14-28.09-1.68-5.93-3.22-11.9-4.07-18.02-.22-1.58-2.16-9.75.15-9.3Z"/>
      <path class="cls-62" d="m15.27,8.03c13.5,23.42,24.6,49.14,31.76,75.19,4.34,15.79,7.38,31.98,10.39,48.06,4.67,24.9,9.09,49.8,10.34,75.14,1.26,25.49,3.76,54.89-4.58,79.44,4.17-24.92.2-51.45-.5-76.53-.34-11.97-1.31-23.83-2.59-35.73-1.24-11.55-3.26-23.04-5.15-34.49-.92-5.58-1.88-11.15-2.86-16.72-.29-1.66-.42-6.59-1.47-7.73-1.06-1.14-6.47-1.61-8.17-2.45-3.42-1.69-6.64-4.09-9.49-6.62-5.46-4.86-10.21-11.2-13.96-17.46-8.67-14.47-12.14-32.14-11.96-48.9.03-3.25,5.27-38.3,3.17-38.78.13-.15.25-.3.36-.46,1.59,2.66,3.15,5.35,4.71,8.03Z"/>
      <path class="cls-62" d="m161,92.49c.21-.3,1.56-2.39.88-2.26,1.39-.27-1.91,2.3,1.55.72-1.64,1.55-.7,3.57-.67,5.66.04,3.39-.53,6.76-1.17,10.08-1.01,5.25-2.51,10.35-4.7,15.24-4.76,10.64-12.85,20.89-22.44,27.54-4.74,3.29-9.38,4.4-14.78,5.92-3.41.96-3.68,2.72-5.5,6.03-3.77,6.9-7.48,13.77-10.8,20.9-3.97,8.52-7.83,17.04-11.46,25.7-12.25,29.19-22.23,59.43-27.46,90.72-.13-18.44,4.14-37.44,9.52-55.01,3.92-12.81,9.02-25.15,14.47-37.37,1.32-2.96,3.32-6.77,3.88-10.04.39-2.29-.81-4.49-1.36-6.9-2.14-9.4-1.99-19.92-.11-29.36,2.07-10.41,8.06-15.25,18.2-16.72,3.71-.54,8.42-.34,11.82-1.92,3.7-1.72,5.23-7.38,7.34-11.01,5.66-9.76,12.38-19.11,20.1-27.34,2.14-2.28,4.44-4.38,6.87-6.32,1.54-1.23,4.79-2.74,5.83-4.25Z"/>
      <path class="cls-3" d="m47.33,278.84h35.98c1.62,0,2.93,1.31,2.93,2.93,0,.14-.01.29-.03.43l-2.78,18.86c-.85,5.75-5.78,10.01-11.59,10.01h-13.03c-5.81,0-10.74-4.26-11.59-10.01l-2.78-18.86c-.24-1.6.87-3.09,2.47-3.33.14-.02.28-.03.43-.03Z"/>
    </g>
    <path class="cls-18" d="m133.53,257.68h-59.94c-.17,0-.31-.14-.31-.34v-8.75c0-1.8,1.39-3.26,3.11-3.26h56.3c.91,0,1.65.77,1.65,1.72l1.08,8.65c-.02,1.08-.86,1.96-1.89,1.96Z"/>
    <path class="cls-65" d="m134.37,253.68l-60.8.02c-.17,0-.31-.1-.31-.22v-5.94c0-1.22,1.39-2.2,3.11-2.2h56.3c.91,0,1.65.53,1.65,1.17l.72,5.77c0,.72.02,1.39-.67,1.39Z"/>
    <path class="cls-10" d="m126.99,258.61h-58.48v-32.82c0-2.01,1.63-3.64,3.64-3.64h54.86c2.01,0,3.64,1.63,3.64,3.64v29.18c-.02,2.01-1.65,3.64-3.67,3.64Z"/>
    <path class="cls-51" d="m130.63,225.6h-62.12v-.86c0-1.41,1.15-2.56,2.56-2.56h56.99c1.41,0,2.56,1.15,2.56,2.56v.86Z"/>
    <path class="cls-65" d="m130.59,255.55h-64.88v55.49h64.88v-55.49Z"/>
    <path class="cls-65" d="m121.41,238.85h-49.42v-29.71c0-2.01,1.63-3.64,3.64-3.64h45.78c2.01,0,3.64,1.63,3.64,3.64v26.09c-.02,2.01-1.65,3.62-3.64,3.62Z"/>
    <path class="cls-46" d="m121.41,244.79h-45.81c-2.01,0-3.64-1.63-3.64-3.64v-26.09c0-2.01,1.63-3.64,3.64-3.64h45.78c2.01,0,3.64,1.63,3.64,3.64v26.09c0,2.01-1.63,3.64-3.62,3.64Z"/>
    <path class="cls-46" d="m124.19,255.55h-58.48v-29.73c0-2.01,1.63-3.64,3.64-3.64h54.86c2.01,0,3.64,1.63,3.64,3.64v26.09c-.02,2.01-1.65,3.64-3.67,3.64Z"/>
    <path class="cls-65" d="m127.83,228.09l-62.12-.38v-1.96c0-1.96,1.51-3.55,3.38-3.55h55.34c1.87,0,3.38,1.58,3.38,3.55l.02,2.35Z"/>
    <path class="cls-65" d="m80.87,244.57h-8.89c-.53,0-.96-.43-.96-.96s.43-.96.96-.96h8.89c.53,0,.96.43.96.96s-.43.96-.96.96Z"/>
    <path class="cls-65" d="m120.52,252.84h-7.33c-.53,0-.96-.43-.96-.96s.43-.96.96-.96h7.33c.53,0,.96.43.96.96s-.43.96-.96.96Z"/>
    <path class="cls-65" d="m124.38,252.86c.53,0,.96-.43.96-.96s-.43-.96-.96-.96-.96.43-.96.96.43.96.96.96Z"/>
    <path class="cls-18" d="m125.03,208.78l-28.37,5.13c-.79.14-1.39.86-1.39,1.72v2.87c0,.79.6,1.41,1.34,1.41h28.41v-11.14Z"/>
    <path class="cls-31" d="m127.83,237.41h-62.12v.81h62.12v-.81Z"/>
    <path class="cls-70" d="m65.64,279.24h65"/>
    <path class="cls-70" d="m104.16,284.03h-11.45c-.62,0-1.13-.5-1.13-1.13v-3.69h13.68v3.69c0,.62-.5,1.13-1.1,1.13Z"/>
    <path class="cls-70" d="m65.64,290.69h65"/>
    <path class="cls-70" d="m104.16,295.48h-11.45c-.62,0-1.13-.5-1.13-1.13v-3.69h13.68v3.69c0,.62-.5,1.13-1.1,1.13Z"/>
    <path class="cls-70" d="m65.64,302.14h65"/>
    <path class="cls-70" d="m104.23,306.96h-11.45c-.62,0-1.13-.5-1.13-1.13v-3.69h13.68v3.69c0,.62-.5,1.13-1.1,1.13Z"/>
    <path class="cls-59" d="m97.14,247.62h-4.58c-.14,0-.26-.12-.26-.26v-7.5c0-.14.12-.26.26-.26h4.58c.14,0,.26.12.26.26v7.5c0,.17-.12.26-.26.26Z"/>
    <path class="cls-57" d="m96.73,246.97h-3.71c-.14,0-.26-.12-.26-.26v-6.18c0-.14.12-.26.26-.26h3.71c.14,0,.26.12.26.26v6.18c0,.14-.12.26-.26.26Z"/>
    <path class="cls-31" d="m94.87,243.88c.15,0,.26-.12.26-.26s-.12-.26-.26-.26-.26.12-.26.26.12.26.26.26Z"/>
    <path class="cls-73" d="m94.31,244.14c-.14-.14-.22-.34-.22-.53,0-.22.07-.38.22-.53"/>
    <path class="cls-73" d="m95.42,243.09c.12.14.22.31.22.53,0,.19-.07.38-.19.5"/>
    <path class="cls-73" d="m94,244.45c-.22-.22-.34-.5-.34-.84s.12-.62.34-.84"/>
    <path class="cls-73" d="m95.73,242.8c.19.22.34.5.34.81s-.12.6-.31.81"/>
    <path class="cls-73" d="m93.69,244.74c-.29-.29-.46-.69-.46-1.13s.17-.84.46-1.13"/>
    <path class="cls-73" d="m96.06,242.49c.26.29.46.69.46,1.13s-.17.81-.43,1.1"/>
    <path class="cls-1" d="m126.39,247.54h-27.17c-.12,0-.19-.1-.19-.19v-16.22c0-.12.1-.19.19-.19h27.14c.12,0,.19.1.19.19v16.22c.02.1-.07.19-.17.19Z"/>
    <path class="cls-16" d="m126.58,247.54h-27.38c-.1,0-.19-.1-.19-.19v-16.27c0-.1.1-.19.19-.19h27.22c.1,0,.19.1.19.19l-.02,16.46s.02,0,0,0Zm-27.38-16.6c-.1,0-.14.07-.14.14v16.27c0,.1.07.14.14.14h27.22c.1,0,.14-.07.14-.14v-16.27c0-.1-.07-.14-.14-.14h-27.22Z"/>
    <path class="cls-31" d="m123.83,232.12h-23.6v14.21h23.6v-14.21Z"/>
    <path class="cls-37" d="m123.85,246.37h-23.65v-14.25h23.65v14.25Zm-23.6-.07h23.55v-14.16h-23.55v14.16Z"/>
    <path class="cls-31" d="m126.15,238.2h-1.87v1.56h1.87v-1.56Z"/>
    <path class="cls-16" d="m126.06,239.78h-1.7c-.07,0-.12-.05-.12-.12v-1.39c0-.07.05-.12.12-.12h1.7c.07,0,.12.05.12.12v1.39c0,.07-.05.12-.12.12Zm-1.68-1.56s-.07.02-.07.07v1.39s.02.07.07.07h1.7s.07-.02.07-.07v-1.39s-.02-.07-.07-.07h-1.7Z"/>
    <path class="cls-16" d="m125.62,239.47h-.26s-.02-.02-.02-.02v-.29h-.19v.29s-.02.02-.02.02h-.26s-.02-.02-.02-.02v-.6s.02-.02.02-.02c.02,0,.02.02.02.02v.55h.19v-.29s.02-.02.02-.02h.26s.02.02.02.02v.29h.19v-.55s.02-.02.02-.02l.02.02v.6s0,.02,0,.02Z"/>
    <path class="cls-16" d="m124.72,238.97s-.02,0-.02-.02c-.02-.02,0-.05,0-.05l.5-.43h.05l.5.43s.02.02,0,.05t-.05,0l-.48-.41-.5.43Z"/>
    <g class="cls-74">
      <path class="cls-56" d="m111.85,235.94c1.98.29,4.04,1.22,4.02,3.53-.01,1.94-1.64,4-3.73,3.89-1.88-.1-3.65-2.16-3.88-3.92-.12-.91.11-1.89.64-2.65.7-.98,1.82-.98,2.95-.85Zm-.94-1.25c-1.43,0-2.48.53-3.37,1.62-.32.39-.69.81-.93,1.26-.23.42-.19,1.47.59.98-.19,2.04,1,4.03,2.72,5.07,1.87,1.14,3.98.92,5.53-.68,1.42-1.46,1.92-3.93.88-5.73-1.04-1.81-3.45-2.54-5.42-2.52Z"/>
      <path class="cls-56" d="m115.21,234.14c-.92.67-1.75,1.56-2.45,2.46-.68.88-1.13,1.97-1.95,2.74-.41-.45-.9-1.66-1.72-1.18-.68.4-.24,1.09.09,1.54.86,1.17,1.81,1.63,2.91.48,1-1.05,1.57-2.44,2.5-3.54.41-.49,1.04-.97,1.37-1.5.3-.49-.07-1.5-.76-.99Z"/>
    </g>
  </g>
</svg>