<?xml version="1.0" encoding="UTF-8"?>
<svg id="Calque_2" data-name="Calque 2" xmlns="http://www.w3.org/2000/svg" viewBox="0 0 65.03 72.39">
  <defs>
    <style>
      .cls-1 {
        stroke-width: 2px;
      }

      .cls-1, .cls-2, .cls-3, .cls-4, .cls-5, .cls-6, .cls-7 {
        stroke: #000;
      }

      .cls-1, .cls-3, .cls-4, .cls-5, .cls-6, .cls-7 {
        stroke-linecap: round;
        stroke-linejoin: round;
      }

      .cls-1, .cls-3, .cls-6, .cls-7 {
        fill: #fcfcfc;
      }

      .cls-2 {
        stroke-miterlimit: 10;
      }

      .cls-2, .cls-3, .cls-4, .cls-5 {
        stroke-width: 4px;
      }

      .cls-2, .cls-3, .cls-4, .cls-6 {
        fill-rule: evenodd;
      }

      .cls-2, .cls-5 {
        fill: none;
      }
    </style>
  </defs>
  <path class="cls-2" d="M59.83,12.38v52.05c0,2.47-2,4.47-4.47,4.47H6.47c-2.47,0-4.47-2-4.47-4.47V6.47c0-2.47,2-4.47,4.47-4.47h43.4"/>
  <path class="cls-2" d="M48.66,2c-.88,0-1.6.71-1.6,1.6v8.78c0,.88.71,1.6,1.6,1.6h9.55c.88,0,1.6-.71,1.6-1.6"/>
  <line class="cls-5" x1="49.04" y1="2" x2="60.09" y2="13.29"/>
  <line class="cls-5" x1="7.64" y1="22.98" x2="48.74" y2="22.98"/>
  <line class="cls-5" x1="7.81" y1="33.23" x2="48.91" y2="33.23"/>
  <line class="cls-5" x1="8.26" y1="42.12" x2="49.36" y2="42.12"/>
  <line class="cls-5" x1="8.19" y1="51.38" x2="49.3" y2="51.38"/>
  <line class="cls-5" x1="7.64" y1="59.04" x2="30.34" y2="59.04"/>
  <polygon class="cls-4" points="48.02 3.38 48.66 13.97 56.7 13.29 56.7 9.83 48.02 3.38"/>
  <circle class="cls-1" cx="45" cy="48.59" r="9.78"/>
  <polyline class="cls-3" points="54.08 59.72 55.7 61.76 63.03 70.39"/>
  <line class="cls-7" x1="50.86" y1="56.41" x2="53.48" y2="59.72"/>
  <path class="cls-6" d="M43.91,41.21s3.79-1.4,5.45,1.91"/>
</svg>